mtllib cube-stack.mtl
o cube-stack.obj
v -1.000000 1.367273 0.058270
v 0.000000 1.367273 0.058270
v -1.000000 0.901112 0.942970
v 0.000000 0.901112 0.942970
v 0.000000 1.833434 -0.826429
v 1.000000 1.833434 -0.826429
v 0.000000 0.901112 0.942970
v 1.000000 0.901112 0.942970
vn 0.000000 0.884700 0.466161
vn 0.000000 0.884700 0.466161
vn 0.000000 0.884700 0.466161
vn 0.000000 0.884700 0.466161
vn 0.000000 0.884700 0.466161
vn 0.000000 0.884700 0.466161
vn 0.000000 0.884700 0.466161
vn 0.000000 0.884700 0.466161
vt 0.004950 0.004950
vt 0.995049 0.004950
vt 0.995049 0.995049
vt 0.004950 0.995049
vt 0.004950 0.004950
vt 0.995049 0.004950
vt 0.995049 0.995049
vt 0.004950 0.995049
g Cube
usemtl Material1
f 3/1/3 4/2/4 2/3/2 1/4/1 
f 7/5/7 8/6/8 6/7/6 5/8/5 
