o model.2
mtllib model.2.mtl
v 0.98713 1.53707 -1.15908
v 0.301354 3.29367 -0.492723
v -0.891553 0.901996 -1.41838
v -1.57733 2.65861 -0.752026
v 0.970974 0.822217 0.708736
v 0.285197 2.57883 1.37509
v -0.907709 0.187148 0.449433
v -1.59349 1.94376 1.11579
v -1.14006 7.01042 -0.93419
v 0.758481 6.39993 -1.08533
v -0.511135 8.85333 -0.477941
v 1.38741 8.24283 -0.629081
v -1.14006 6.52979 1.0072
v 0.758481 5.9193 0.85606
v -0.511135 8.3727 1.46345
v 1.38741 7.7622 1.31231
v -1.17707 4.80812 -0.920804
v 0.636379 4.12134 -1.41042
v -0.333629 6.28474 0.131904
v 1.47982 5.59796 -0.357715
v -1.17707 3.64712 0.707716
v 0.636379 2.96034 0.218097
v -0.333629 5.12374 1.76042
v 1.47982 4.43696 1.27081
v -4.5 -0.1 -4.5
v 4.5 -0.1 -4.5
v -4.5 0 -4.5
v 4.5 0 -4.5
v -4.5 -0.1 4.5
v 4.5 -0.1 4.5
v -4.5 0 4.5
v 4.5 0 4.5
v 1.15908 1.53707 10.9871
v 0.492723 3.29367 10.3014
v 1.41838 0.901996 9.10845
v 0.752026 2.65861 8.42267
v -0.708736 0.822217 10.971
v -1.37509 2.57883 10.2852
v -0.449433 0.187148 9.09229
v -1.11579 1.94376 8.40651
v 0.93419 7.01042 8.85994
v 1.08533 6.39993 10.7585
v 0.477941 8.85333 9.48886
v 0.629081 8.24283 11.3874
v -1.0072 6.52979 8.85994
v -0.85606 5.9193 10.7585
v -1.46345 8.3727 9.48886
v -1.31231 7.7622 11.3874
v 0.920804 4.80812 8.82293
v 1.41042 4.12134 10.6364
v -0.131904 6.28474 9.66637
v 0.357715 5.59796 11.4798
v -0.707716 3.64712 8.82293
v -0.218097 2.96034 10.6364
v -1.76042 5.12374 9.66637
v -1.27081 4.43696 11.4798
v 4.5 -0.1 5.5
v 4.5 -0.1 14.5
v 4.5 0 5.5
v 4.5 0 14.5
v -4.5 -0.1 5.5
v -4.5 -0.1 14.5
v -4.5 0 5.5
v -4.5 0 14.5
v 11.1591 1.53707 0.98713
v 10.4927 3.29367 0.301354
v 11.4184 0.901996 -0.891553
v 10.752 2.65861 -1.57733
v 9.29126 0.822217 0.970974
v 8.62491 2.57883 0.285197
v 9.55057 0.187148 -0.907709
v 8.88421 1.94376 -1.59349
v 10.9342 7.01042 -1.14006
v 11.0853 6.39993 0.758481
v 10.4779 8.85333 -0.511135
v 10.6291 8.24283 1.38741
v 8.9928 6.52979 -1.14006
v 9.14394 5.9193 0.758481
v 8.53655 8.3727 -0.511135
v 8.68769 7.7622 1.38741
v 10.9208 4.80812 -1.17707
v 11.4104 4.12134 0.636379
v 9.8681 6.28474 -0.333629
v 10.3577 5.59796 1.47982
v 9.29228 3.64712 -1.17707
v 9.7819 2.96034 0.636379
v 8.23958 5.12374 -0.333629
v 8.72919 4.43696 1.47982
v 14.5 -0.1 -4.5
v 14.5 -0.1 4.5
v 14.5 0 -4.5
v 14.5 0 4.5
v 5.5 -0.1 -4.5
v 5.5 -0.1 4.5
v 5.5 0 -4.5
v 5.5 0 4.5
v 9.01287 1.53707 11.1591
v 9.69865 3.29367 10.4927
v 10.8916 0.901996 11.4184
v 11.5773 2.65861 10.752
v 9.02903 0.822217 9.29126
v 9.7148 2.57883 8.62491
v 10.9077 0.187148 9.55057
v 11.5935 1.94376 8.88421
v 11.1401 7.01042 10.9342
v 9.24152 6.39993 11.0853
v 10.5111 8.85333 10.4779
v 8.61259 8.24283 10.6291
v 11.1401 6.52979 8.9928
v 9.24152 5.9193 9.14394
v 10.5111 8.3727 8.53655
v 8.61259 7.7622 8.68769
v 11.1771 4.80812 10.9208
v 9.36362 4.12134 11.4104
v 10.3336 6.28474 9.8681
v 8.52018 5.59796 10.3577
v 11.1771 3.64712 9.29228
v 9.36362 2.96034 9.7819
v 10.3336 5.12374 8.23958
v 8.52018 4.43696 8.72919
v 14.5 -0.1 14.5
v 5.5 -0.1 14.5
v 14.5 0 14.5
v 5.5 0 14.5
v 14.5 -0.1 5.5
v 5.5 -0.1 5.5
v 14.5 0 5.5
v 5.5 0 5.5
vn 0.00807809 0.357424 -0.933907
vn -0.00807848 -0.357424 0.933907
vn -0.00807889 -0.357424 0.933907
vn -0.00807807 -0.357424 0.933907
vn 0.939341 0.317534 0.129652
vn 0.939341 0.317535 0.129652
vn 0.939342 0.317534 0.129652
vn -0.342888 0.878305 0.333178
vn -0.342888 0.878305 0.333178
vn -0.342888 0.878305 0.333178
vn -0.939341 -0.317534 -0.129652
vn -0.939341 -0.317534 -0.129652
vn -0.939342 -0.317534 -0.129651
vn 0.342888 -0.878305 -0.333178
vn 0.342888 -0.878305 -0.333178
vn 0.342888 -0.878305 -0.333178
vn 6.33299e-08 0.240316 -0.970695
vn 7.45058e-08 0.240316 -0.970695
vn 5.2154e-08 0.240316 -0.970695
vn 8.9407e-08 -0.240315 0.970695
vn 1.19209e-07 -0.240315 0.970695
vn 5.96047e-08 -0.240315 0.970695
vn -0.314462 -0.921452 -0.228124
vn -0.314462 -0.921452 -0.228124
vn -0.314462 -0.921452 -0.228124
vn 0.94927 -0.305247 -0.0755698
vn 0.94927 -0.305247 -0.0755699
vn 0.94927 -0.305247 -0.0755697
vn 0.314462 0.921452 0.228124
vn 0.314462 0.921452 0.228124
vn 0.314462 0.921452 0.228124
vn -0.94927 0.305247 0.07557
vn -0.94927 0.305247 0.0755701
vn -0.94927 0.305247 0.07557
vn -6.33299e-08 0.5805 -0.81426
vn 0 0.5805 -0.81426
vn -1.2666e-07 0.5805 -0.81426
vn 0 -0.5805 0.81426
vn -1.19209e-07 -0.5805 0.81426
vn 1.19209e-07 -0.5805 0.81426
vn -0.421722 -0.73831 -0.526354
vn -0.421722 -0.73831 -0.526354
vn -0.421722 -0.73831 -0.526354
vn 0.906725 -0.343391 -0.244809
vn 0.906725 -0.343391 -0.244809
vn 0.906725 -0.343391 -0.24481
vn 0.421722 0.73831 0.526354
vn 0.421722 0.73831 0.526355
vn 0.421721 0.73831 0.526354
vn -0.906725 0.343391 0.24481
vn -0.906725 0.343391 0.244809
vn -0.906725 0.343391 0.24481
vn 0 0 -1
vn 0 0 1
vn 0 -1 0
vn 1 0 0
vn 0 1 0
vn -1 0 0
vn 0.933907 0.357424 0.00807807
vn -0.933907 -0.357424 -0.00807847
vn -0.933907 -0.357424 -0.00807888
vn -0.933907 -0.357424 -0.00807806
vn -0.129652 0.317534 0.939341
vn -0.129652 0.317535 0.939341
vn -0.129652 0.317534 0.939342
vn -0.333178 0.878305 -0.342888
vn -0.333178 0.878305 -0.342888
vn -0.333178 0.878305 -0.342888
vn 0.129652 -0.317534 -0.939341
vn 0.129652 -0.317534 -0.939341
vn 0.129651 -0.317534 -0.939342
vn 0.333178 -0.878305 0.342888
vn 0.333178 -0.878305 0.342888
vn 0.333178 -0.878305 0.342888
vn 0.970695 0.240316 5.17545e-08
vn 0.970695 0.240316 6.29303e-08
vn 0.970695 0.240316 4.05786e-08
vn -0.970695 -0.240315 1.00982e-07
vn -0.970695 -0.240315 1.30785e-07
vn -0.970695 -0.240315 7.11801e-08
vn 0.228124 -0.921452 -0.314462
vn 0.228124 -0.921452 -0.314462
vn 0.228124 -0.921452 -0.314462
vn 0.0755699 -0.305247 0.94927
vn 0.07557 -0.305247 0.94927
vn 0.0755697 -0.305247 0.94927
vn -0.228124 0.921452 0.314462
vn -0.228125 0.921452 0.314462
vn -0.228124 0.921452 0.314462
vn -0.07557 0.305247 -0.94927
vn -0.0755701 0.305247 -0.94927
vn -0.07557 0.305247 -0.94927
vn 0.81426 0.5805 -7.30399e-08
vn 0.81426 0.5805 -9.70996e-09
vn 0.81426 0.5805 -1.3637e-07
vn -0.81426 -0.5805 9.70996e-09
vn -0.81426 -0.5805 -1.09499e-07
vn -0.81426 -0.5805 1.28919e-07
vn 0.526354 -0.73831 -0.421722
vn 0.526354 -0.73831 -0.421722
vn 0.526354 -0.73831 -0.421722
vn 0.24481 -0.343391 0.906725
vn 0.244809 -0.343391 0.906725
vn 0.24481 -0.343391 0.906725
vn -0.526354 0.73831 0.421722
vn -0.526355 0.73831 0.421722
vn -0.526354 0.73831 0.421721
vn -0.24481 0.343391 -0.906725
vn -0.244809 0.343391 -0.906725
vn -0.24481 0.343391 -0.906725
vn 1 0 -1.19249e-08
vn -1 0 1.19249e-08
vn 1.19249e-08 0 1
vn -1.19249e-08 0 -1
vn -0.008078 0.357424 0.933907
vn 0.0080784 -0.357424 -0.933907
vn 0.00807881 -0.357424 -0.933907
vn 0.00807799 -0.357424 -0.933907
vn -0.939341 0.317534 -0.129652
vn -0.939341 0.317535 -0.129651
vn -0.939342 0.317534 -0.129652
vn 0.342888 0.878305 -0.333178
vn 0.342888 0.878305 -0.333178
vn 0.342888 0.878305 -0.333178
vn 0.939341 -0.317534 0.129652
vn 0.939341 -0.317534 0.129652
vn 0.939342 -0.317534 0.129651
vn -0.342888 -0.878305 0.333178
vn -0.342888 -0.878305 0.333178
vn -0.342888 -0.878305 0.333178
vn 2.15309e-08 0.240316 0.970695
vn 1.03551e-08 0.240316 0.970695
vn 3.27068e-08 0.240316 0.970695
vn -1.74268e-07 -0.240315 -0.970695
vn -2.0407e-07 -0.240315 -0.970695
vn -1.44466e-07 -0.240315 -0.970695
vn 0.314462 -0.921452 0.228124
vn 0.314462 -0.921452 0.228124
vn 0.314462 -0.921452 0.228124
vn -0.94927 -0.305247 0.0755699
vn -0.94927 -0.305247 0.07557
vn -0.94927 -0.305247 0.0755698
vn -0.314462 0.921452 -0.228124
vn -0.314462 0.921452 -0.228124
vn -0.314462 0.921452 -0.228124
vn 0.94927 0.305247 -0.0755701
vn 0.94927 0.305247 -0.0755702
vn 0.94927 0.305247 -0.0755701
vn 1.34515e-07 0.5805 0.81426
vn 7.11849e-08 0.5805 0.81426
vn 1.97845e-07 0.5805 0.81426
vn -7.11849e-08 -0.5805 -0.81426
vn 4.80244e-08 -0.5805 -0.81426
vn -1.90394e-07 -0.5805 -0.81426
vn 0.421722 -0.73831 0.526354
vn 0.421722 -0.73831 0.526354
vn 0.421722 -0.73831 0.526354
vn -0.906725 -0.343391 0.24481
vn -0.906725 -0.343391 0.24481
vn -0.906725 -0.343391 0.24481
vn -0.421722 0.73831 -0.526354
vn -0.421722 0.73831 -0.526354
vn -0.421722 0.73831 -0.526354
vn 0.906725 0.343391 -0.24481
vn 0.906725 0.343391 -0.24481
vn 0.906725 0.343391 -0.24481
vn 8.74228e-08 0 1
vn -8.74228e-08 0 -1
vn -1 0 8.74228e-08
vn 1 0 -8.74228e-08
vt 0.995049 0.995049
vt 0.00495 0.995049
vt 0.995049 0.00495
vt 0.00495 0.00495
vt 0.004951 0.995049
vt 0.995049 0.004951
vt 0.004951 0.004951
usemtl Red
f 4/1/1 2/1/1 1/2/1
f 4/1/1 1/2/1 3/2/1
f 6/3/2 8/3/3 7/4/2
f 6/3/2 7/4/2 5/4/4
f 6/3/5 5/4/6 1/2/5
f 6/3/5 1/2/5 2/1/7
f 8/3/8 6/3/9 2/1/8
f 8/3/8 2/1/8 4/1/10
f 7/4/11 8/3/12 4/1/11
f 7/4/11 4/1/11 3/2/13
f 5/4/14 7/4/15 3/2/14
f 5/4/14 3/2/14 1/2/16
usemtl Blue
f 12/1/17 10/1/18 9/2/17
f 12/1/17 9/2/17 11/2/19
f 14/3/20 16/3/21 15/4/20
f 14/3/20 15/4/20 13/4/22
f 14/3/23 13/4/24 9/2/23
f 14/3/23 9/2/23 10/1/25
f 16/3/26 14/3/27 10/1/26
f 16/3/26 10/1/26 12/1/28
f 15/4/29 16/3/30 12/1/29
f 15/4/29 12/1/29 11/2/31
f 13/4/32 15/4/33 11/2/32
f 13/4/32 11/2/32 9/2/34
usemtl Green
f 20/1/35 18/1/36 17/2/35
f 20/1/35 17/2/35 19/2/37
f 22/3/38 24/3/39 23/4/38
f 22/3/38 23/4/38 21/4/40
f 22/3/41 21/4/42 17/2/41
f 22/3/41 17/2/41 18/1/43
f 24/3/44 22/3/45 18/1/44
f 24/3/44 18/1/44 20/1/46
f 23/4/47 24/3/48 20/1/47
f 23/4/47 20/1/47 19/2/49
f 21/4/50 23/4/51 19/2/50
f 21/4/50 19/2/50 17/2/52
usemtl Material1
f 28/1/53 26/1/53 25/5/53
f 28/1/53 25/5/53 27/5/53
f 30/6/54 32/6/54 31/7/54
f 30/6/54 31/7/54 29/7/54
f 30/6/55 29/7/55 25/5/55
f 30/6/55 25/5/55 26/1/55
f 32/6/56 30/6/56 26/1/56
f 32/6/56 26/1/56 28/1/56
f 31/7/57 32/6/57 28/1/57
f 31/7/57 28/1/57 27/5/57
f 29/7/58 31/7/58 27/5/58
f 29/7/58 27/5/58 25/5/58
usemtl Red
f 36/1/59 34/1/59 33/2/59
f 36/1/59 33/2/59 35/2/59
f 38/3/60 40/3/61 39/4/60
f 38/3/60 39/4/60 37/4/62
f 38/3/63 37/4/64 33/2/63
f 38/3/63 33/2/63 34/1/65
f 40/3/66 38/3/67 34/1/66
f 40/3/66 34/1/66 36/1/68
f 39/4/69 40/3/70 36/1/69
f 39/4/69 36/1/69 35/2/71
f 37/4/72 39/4/73 35/2/72
f 37/4/72 35/2/72 33/2/74
usemtl Blue
f 44/1/75 42/1/76 41/2/75
f 44/1/75 41/2/75 43/2/77
f 46/3/78 48/3/79 47/4/78
f 46/3/78 47/4/78 45/4/80
f 46/3/81 45/4/82 41/2/81
f 46/3/81 41/2/81 42/1/83
f 48/3/84 46/3/85 42/1/84
f 48/3/84 42/1/84 44/1/86
f 47/4/87 48/3/88 44/1/87
f 47/4/87 44/1/87 43/2/89
f 45/4/90 47/4/91 43/2/90
f 45/4/90 43/2/90 41/2/92
usemtl Green
f 52/1/93 50/1/94 49/2/93
f 52/1/93 49/2/93 51/2/95
f 54/3/96 56/3/97 55/4/96
f 54/3/96 55/4/96 53/4/98
f 54/3/99 53/4/100 49/2/99
f 54/3/99 49/2/99 50/1/101
f 56/3/102 54/3/103 50/1/102
f 56/3/102 50/1/102 52/1/104
f 55/4/105 56/3/106 52/1/105
f 55/4/105 52/1/105 51/2/107
f 53/4/108 55/4/109 51/2/108
f 53/4/108 51/2/108 49/2/110
usemtl Material1
f 60/1/111 58/1/111 57/5/111
f 60/1/111 57/5/111 59/5/111
f 62/6/112 64/6/112 63/7/112
f 62/6/112 63/7/112 61/7/112
f 62/6/55 61/7/55 57/5/55
f 62/6/55 57/5/55 58/1/55
f 64/6/113 62/6/113 58/1/113
f 64/6/113 58/1/113 60/1/113
f 63/7/57 64/6/57 60/1/57
f 63/7/57 60/1/57 59/5/57
f 61/7/114 63/7/114 59/5/114
f 61/7/114 59/5/114 57/5/114
usemtl Red
f 68/1/59 66/1/59 65/2/59
f 68/1/59 65/2/59 67/2/59
f 70/3/60 72/3/61 71/4/60
f 70/3/60 71/4/60 69/4/62
f 70/3/63 69/4/64 65/2/63
f 70/3/63 65/2/63 66/1/65
f 72/3/66 70/3/67 66/1/66
f 72/3/66 66/1/66 68/1/68
f 71/4/69 72/3/70 68/1/69
f 71/4/69 68/1/69 67/2/71
f 69/4/72 71/4/73 67/2/72
f 69/4/72 67/2/72 65/2/74
usemtl Blue
f 76/1/75 74/1/76 73/2/75
f 76/1/75 73/2/75 75/2/77
f 78/3/78 80/3/79 79/4/78
f 78/3/78 79/4/78 77/4/80
f 78/3/81 77/4/82 73/2/81
f 78/3/81 73/2/81 74/1/83
f 80/3/84 78/3/85 74/1/84
f 80/3/84 74/1/84 76/1/86
f 79/4/87 80/3/88 76/1/87
f 79/4/87 76/1/87 75/2/89
f 77/4/90 79/4/91 75/2/90
f 77/4/90 75/2/90 73/2/92
usemtl Green
f 84/1/93 82/1/94 81/2/93
f 84/1/93 81/2/93 83/2/95
f 86/3/96 88/3/97 87/4/96
f 86/3/96 87/4/96 85/4/98
f 86/3/99 85/4/100 81/2/99
f 86/3/99 81/2/99 82/1/101
f 88/3/102 86/3/103 82/1/102
f 88/3/102 82/1/102 84/1/104
f 87/4/105 88/3/106 84/1/105
f 87/4/105 84/1/105 83/2/107
f 85/4/108 87/4/109 83/2/108
f 85/4/108 83/2/108 81/2/110
usemtl Material1
f 92/1/111 90/1/111 89/5/111
f 92/1/111 89/5/111 91/5/111
f 94/6/112 96/6/112 95/7/112
f 94/6/112 95/7/112 93/7/112
f 94/6/55 93/7/55 89/5/55
f 94/6/55 89/5/55 90/1/55
f 96/6/113 94/6/113 90/1/113
f 96/6/113 90/1/113 92/1/113
f 95/7/57 96/6/57 92/1/57
f 95/7/57 92/1/57 91/5/57
f 93/7/114 95/7/114 91/5/114
f 93/7/114 91/5/114 89/5/114
usemtl Red
f 100/1/115 98/1/115 97/2/115
f 100/1/115 97/2/115 99/2/115
f 102/3/116 104/3/117 103/4/116
f 102/3/116 103/4/116 101/4/118
f 102/3/119 101/4/120 97/2/119
f 102/3/119 97/2/119 98/1/121
f 104/3/122 102/3/123 98/1/122
f 104/3/122 98/1/122 100/1/124
f 103/4/125 104/3/126 100/1/125
f 103/4/125 100/1/125 99/2/127
f 101/4/128 103/4/129 99/2/128
f 101/4/128 99/2/128 97/2/130
usemtl Blue
f 108/1/131 106/1/132 105/2/131
f 108/1/131 105/2/131 107/2/133
f 110/3/134 112/3/135 111/4/134
f 110/3/134 111/4/134 109/4/136
f 110/3/137 109/4/138 105/2/137
f 110/3/137 105/2/137 106/1/139
f 112/3/140 110/3/141 106/1/140
f 112/3/140 106/1/140 108/1/142
f 111/4/143 112/3/144 108/1/143
f 111/4/143 108/1/143 107/2/145
f 109/4/146 111/4/147 107/2/146
f 109/4/146 107/2/146 105/2/148
usemtl Green
f 116/1/149 114/1/150 113/2/149
f 116/1/149 113/2/149 115/2/151
f 118/3/152 120/3/153 119/4/152
f 118/3/152 119/4/152 117/4/154
f 118/3/155 117/4/156 113/2/155
f 118/3/155 113/2/155 114/1/157
f 120/3/158 118/3/159 114/1/158
f 120/3/158 114/1/158 116/1/160
f 119/4/161 120/3/162 116/1/161
f 119/4/161 116/1/161 115/2/163
f 117/4/164 119/4/165 115/2/164
f 117/4/164 115/2/164 113/2/166
usemtl Material1
f 124/1/167 122/1/167 121/5/167
f 124/1/167 121/5/167 123/5/167
f 126/6/168 128/6/168 127/7/168
f 126/6/168 127/7/168 125/7/168
f 126/6/55 125/7/55 121/5/55
f 126/6/55 121/5/55 122/1/55
f 128/6/169 126/6/169 122/1/169
f 128/6/169 122/1/169 124/1/169
f 127/7/57 128/6/57 124/1/57
f 127/7/57 124/1/57 123/5/57
f 125/7/170 127/7/170 123/5/170
f 125/7/170 123/5/170 121/5/170
