mtllib contact-shadow.mtl
o contact-shadow.obj
v -4.521314 0.000000 1.889633
v 3.932982 0.000000 3.510615
v 1.109646 0.000000 -4.621510
vn 0.000000 1.000000 0.000000
vn 0.000000 1.000000 0.000000
vn 0.000000 1.000000 0.000000
vt 0.000000 0.000000
vt 0.000000 0.000000
vt 0.000000 0.000000
g Line Segment
usemtl Material1
f 2/1/2 3/2/3 1/3/1 
v 1.221204 3.464633 -1.278986
v 1.357028 3.535256 -1.051221
v 1.117303 3.654876 -1.110685
vn -0.482113 -0.713313 0.508676
vn -0.482113 -0.713313 0.508676
vn -0.482113 -0.713313 0.508676
vt 0.000000 0.000000
vt 0.000000 0.000000
vt 0.000000 0.000000
g Line Segment
usemtl LightSource
f 5/4/5 6/5/6 4/6/4 
v -0.500000 0.000000 -0.500000
v 0.500000 0.000000 -0.500000
v -0.500000 1.000000 -0.500000
v 0.500000 1.000000 -0.500000
v -0.500000 0.000000 0.500000
v 0.500000 0.000000 0.500000
v -0.500000 1.000000 0.500000
v 0.500000 1.000000 0.500000
vn -0.333333 -0.666667 -0.666667
vn 0.816497 -0.408248 -0.408248
vn -0.816497 0.408248 -0.408248
vn 0.333333 0.666667 -0.666667
vn -0.816497 -0.408248 0.408248
vn 0.333333 -0.666667 0.666667
vn -0.333333 0.666667 0.666667
vn 0.816497 0.408248 0.408248
vt 0.995049 0.995049
vt 0.995049 0.995049
vt 0.004950 0.995049
vt 0.004950 0.995049
vt 0.995049 0.004950
vt 0.995049 0.004950
vt 0.004950 0.004950
vt 0.004950 0.004950
g Cube
usemtl Material2
f 10/7/10 8/8/8 7/9/7 
f 10/7/10 7/9/7 9/10/9 
f 12/11/12 14/12/14 13/13/13 
f 12/11/12 13/13/13 11/14/11 
f 12/11/12 11/14/11 7/9/7 
f 12/11/12 7/9/7 8/8/8 
f 14/12/14 12/11/12 8/8/8 
f 14/12/14 8/8/8 10/7/10 
f 13/13/13 14/12/14 10/7/10 
f 13/13/13 10/7/10 9/10/9 
f 11/14/11 13/13/13 9/10/9 
f 11/14/11 9/10/9 7/9/7 
