mtllib coplanar.mtl
o coplanar.obj
v -4.521314 0.000000 1.889633
v 3.932982 0.000000 3.510615
v 1.109646 0.000000 -4.621510
vn 0.000000 1.000000 0.000000
vn 0.000000 1.000000 0.000000
vn 0.000000 1.000000 0.000000
vt 0.000000 0.000000
vt 0.000000 0.000000
vt 0.000000 0.000000
g Line Segment
usemtl Material1
f 2/1/2 3/2/3 1/3/1 
v 0.929093 1.000000 -0.318328
v -0.796666 1.000000 -0.465822
v -0.061520 1.000000 1.102477
vn 0.000000 1.000000 0.000000
vn 0.000000 1.000000 0.000000
vn 0.000000 1.000000 0.000000
vt 0.000000 0.000000
vt 0.000000 0.000000
vt 0.000000 0.000000
g Line Segment
usemtl Material2
f 5/4/5 6/5/6 4/6/4 
v 0.507758 3.988007 0.244846
v 0.592825 3.960852 0.029265
v 0.798197 3.895296 -0.060032
v 1.003569 3.829740 0.029265
v 1.088637 3.802585 0.244846
v 1.003569 3.829740 0.460428
v 0.798197 3.895296 0.549724
v 0.592825 3.960852 0.460428
vn -0.304090 -0.952643 0.000000
vn -0.304086 -0.952645 0.000007
vn -0.304088 -0.952644 0.000005
vn -0.304092 -0.952643 -0.000000
vn -0.304093 -0.952642 0.000000
vn -0.304092 -0.952643 0.000000
vn -0.304088 -0.952644 -0.000005
vn -0.304086 -0.952645 -0.000007
vt 0.995049 0.500000
vt 0.850053 0.850053
vt 0.500000 0.995049
vt 0.149947 0.850053
vt 0.004951 0.500000
vt 0.149947 0.149947
vt 0.500000 0.004951
vt 0.850053 0.149947
g Polygon
usemtl LightSource
f 7/7/7 8/8/8 9/9/9 
f 7/7/7 9/9/9 10/10/10 
f 7/7/7 10/10/10 11/11/11 
f 7/7/7 11/11/11 12/12/12 
f 7/7/7 12/12/12 13/13/13 
f 7/7/7 13/13/13 14/14/14 
v 0.723237 1.000000 -0.529146
v -0.977516 1.000000 -0.201366
v 0.156727 1.000000 1.107640
vn 0.000000 1.000000 0.000000
vn 0.000000 1.000000 0.000000
vn 0.000000 1.000000 0.000000
vt 0.000000 0.000000
vt 0.000000 0.000000
vt 0.000000 0.000000
g Line Segment
usemtl Material2
f 16/15/16 17/16/17 15/17/15 
v 0.376229 1.000000 -0.708211
v -1.094396 1.000000 0.206808
v 0.433347 1.000000 1.022898
vn 0.000000 1.000000 0.000000
vn 0.000000 1.000000 0.000000
vn 0.000000 1.000000 0.000000
vt 0.000000 0.000000
vt 0.000000 0.000000
vt 0.000000 0.000000
g Line Segment
usemtl Material2
f 19/18/19 20/19/20 18/20/18 
v -0.129336 1.000000 -0.736022
v -1.016185 1.000000 0.751761
v 0.715698 1.000000 0.775904
vn 0.000000 1.000000 0.000000
vn 0.000000 1.000000 0.000000
vn 0.000000 1.000000 0.000000
vt 0.000000 0.000000
vt 0.000000 0.000000
vt 0.000000 0.000000
g Line Segment
usemtl Material2
f 22/21/22 23/22/23 21/23/21 
