mtllib craftsman-colored.mtl
o craftsman-colored.obj
v 4.000000 0.000000 -5.000000
v 4.000000 3.500000 -5.000000
v 0.000000 5.500000 -5.000000
v -4.000000 3.500000 -5.000000
v -4.000000 0.000000 -5.000000
v 4.000000 0.000000 5.000000
v 4.000000 3.500000 5.000000
v 0.000000 5.500000 5.000000
v -4.000000 3.500000 5.000000
v -4.000000 0.000000 5.000000
vn 0.816497 -0.408248 -0.408248
vn 0.447214 0.000000 -0.894427
vn 0.000000 0.000000 -1.000000
vn -0.894427 0.000000 -0.447214
vn -0.267261 -0.534522 -0.801784
vn 0.267261 -0.534522 0.801784
vn 0.894427 0.000000 0.447214
vn 0.000000 0.000000 1.000000
vn -0.447214 0.000000 0.894427
vn -0.816497 -0.408248 0.408248
vt 0.000000 0.000000
vt 0.000000 0.000000
vt 0.000000 0.000000
vt 0.000000 0.000000
vt 0.000000 0.000000
vt 0.000000 0.000000
vt 0.000000 0.000000
vt 0.000000 0.000000
vt 0.000000 0.000000
vt 0.000000 0.000000
g Extrusion
usemtl Tan
f 1/1/1 2/8/2 7/2/7 
f 1/1/1 7/2/7 6/3/6 
f 4/4/4 5/5/5 10/6/10 
f 4/4/4 10/6/10 9/10/9 
f 5/5/5 1/1/1 6/3/6 
f 5/5/5 6/3/6 10/6/10 
f 5/5/5 4/4/4 3/7/3 
f 5/5/5 3/7/3 2/8/2 
f 5/5/5 2/8/2 1/1/1 
f 6/3/6 7/2/7 8/9/8 
f 6/3/6 8/9/8 9/10/9 
f 6/3/6 9/10/9 10/6/10 
v 4.500000 3.500000 -5.500000
v 0.000000 5.750000 -5.500000
v -4.500000 3.500000 -5.500000
v 4.500000 3.500000 5.500000
v 0.000000 5.750000 5.500000
v -4.500000 3.500000 5.500000
vn 0.447214 0.894427 0.000000
vn -0.164399 0.986394 0.000000
vn -0.447214 0.894427 0.000000
vn 0.447214 0.894427 0.000000
vn 0.164399 0.986394 0.000000
vn -0.447214 0.894427 0.000000
vt 0.000000 0.000000
vt 0.000000 0.000000
vt 0.000000 0.000000
vt 0.000000 0.000000
vt 0.000000 0.000000
vt 0.000000 0.000000
g Extrusion
usemtl Roof
f 11/11/11 12/14/12 15/12/15 
f 11/11/11 15/12/15 14/13/14 
f 12/14/12 13/15/13 16/16/16 
f 12/14/12 16/16/16 15/12/15 
v -3.875000 0.000000 5.000000
v 0.875000 0.000000 5.000000
v -3.875000 1.000000 5.000000
v 0.875000 1.000000 5.000000
v -3.875000 0.000000 8.250000
v 0.875000 0.000000 8.250000
v -3.875000 1.000000 8.250000
v 0.875000 1.000000 8.250000
v -3.875000 0.000000 5.000000
v 0.875000 0.000000 5.000000
v -3.875000 1.000000 5.000000
v 0.875000 1.000000 5.000000
v -3.875000 0.000000 8.250000
v 0.875000 0.000000 8.250000
v -3.875000 1.000000 8.250000
v 0.875000 1.000000 8.250000
vn 0.000000 -0.707107 -0.707107
vn 0.000000 -0.707107 -0.707107
vn 0.000000 0.707107 -0.707107
vn 0.000000 0.707107 -0.707107
vn 0.000000 -0.707107 0.707107
vn 0.000000 -0.707107 0.707107
vn 0.000000 0.707107 0.707107
vn 0.000000 0.707107 0.707107
vn -1.000000 0.000000 0.000000
vn 1.000000 0.000000 0.000000
vn -1.000000 0.000000 0.000000
vn 1.000000 0.000000 0.000000
vn -1.000000 0.000000 0.000000
vn 1.000000 0.000000 0.000000
vn -1.000000 0.000000 0.000000
vn 1.000000 0.000000 0.000000
vt 0.995049 0.995049
vt 0.004951 0.995049
vt 0.995049 0.004951
vt 0.995049 0.004951
vt 0.004951 0.004951
vt 0.004951 0.004951
vt 0.004951 0.995049
vt 0.995049 0.995049
vt 0.995049 0.004951
vt 0.995049 0.004951
vt 0.995049 0.995049
vt 0.995049 0.995049
vt 0.004951 0.004951
vt 0.004951 0.004951
vt 0.004951 0.995049
vt 0.004951 0.995049
g Cube
usemtl Tan
f 20/24/20 18/17/18 17/23/17 
f 20/24/20 17/23/17 19/18/19 
usemtl White
f 22/19/22 24/20/24 23/21/23 
f 22/19/22 23/21/23 21/22/21 
usemtl Tan
f 22/19/22 21/22/21 17/23/17 
f 22/19/22 17/23/17 18/17/18 
usemtl White
f 23/21/23 24/20/24 20/24/20 
f 23/21/23 20/24/20 19/18/19 
f 32/25/32 30/26/30 26/27/26 
f 32/25/32 26/27/26 28/28/28 
f 29/29/29 31/30/31 27/31/27 
f 29/29/29 27/31/27 25/32/25 
v -3.749385 1.000000 7.159126
v -2.780472 1.000000 7.159126
v -3.749385 1.000000 8.128039
v -2.780472 1.000000 8.128039
v -3.652494 1.493163 7.256017
v -2.877364 1.493163 7.256017
v -3.507157 3.430989 7.401354
v -3.022701 3.430989 7.401354
v -3.652494 1.493163 8.031148
v -2.877364 1.493163 8.031148
v -3.507157 3.430989 7.885811
v -3.022701 3.430989 7.885811
v -3.555603 3.430990 7.352909
v -2.974255 3.430989 7.352909
v -3.555603 3.626000 7.352909
v -2.974255 3.626000 7.352909
v -3.555603 3.430989 7.934256
v -2.974255 3.430989 7.934256
v -3.555603 3.626000 7.934256
v -2.974255 3.626000 7.934256
vn 0.000000 -1.000000 0.000000
vn 0.000000 -1.000000 0.000000
vn 0.000000 -1.000000 0.000000
vn 0.000000 -1.000000 0.000000
vn -0.349843 -0.622936 -0.699686
vn 0.844778 -0.328538 -0.422389
vn -0.784012 0.481308 -0.392006
vn 0.316613 0.706243 -0.633227
vn -0.844778 -0.328538 0.422389
vn 0.349843 -0.622936 0.699686
vn -0.316613 0.706243 0.633227
vn 0.784011 0.481308 0.392006
vn -0.333334 -0.666666 -0.666667
vn 0.816496 -0.408249 -0.408249
vn -0.816497 0.408248 -0.408248
vn 0.333333 0.666667 -0.666667
vn -0.816497 -0.408248 0.408248
vn 0.333333 -0.666667 0.666666
vn -0.333333 0.666667 0.666667
vn 0.816497 0.408248 0.408248
vt 0.995049 0.004951
vt 0.004951 0.004951
vt 0.004951 0.995049
vt 0.995049 0.995049
vt 0.995049 0.995049
vt 0.995049 0.995049
vt 0.004951 0.995049
vt 0.004951 0.995049
vt 0.995049 0.004951
vt 0.995049 0.004951
vt 0.004951 0.004951
vt 0.004951 0.004951
vt 0.995049 0.995049
vt 0.995049 0.995049
vt 0.004951 0.995049
vt 0.004951 0.995049
vt 0.995049 0.004951
vt 0.995049 0.004951
vt 0.004951 0.004951
vt 0.004951 0.004951
g Cube
usemtl White
f 36/33/36 35/34/35 33/35/33 
f 36/33/36 33/35/33 34/36/34 
f 40/37/40 38/38/38 37/39/37 
f 40/37/40 37/39/37 39/40/39 
f 42/41/42 44/42/44 43/43/43 
f 42/41/42 43/43/43 41/44/41 
f 42/41/42 41/44/41 37/39/37 
f 42/41/42 37/39/37 38/38/38 
f 44/42/44 42/41/42 38/38/38 
f 44/42/44 38/38/38 40/37/40 
f 43/43/43 44/42/44 40/37/40 
f 43/43/43 40/37/40 39/40/39 
f 41/44/41 43/43/43 39/40/39 
f 41/44/41 39/40/39 37/39/37 
f 48/45/48 46/46/46 45/47/45 
f 48/45/48 45/47/45 47/48/47 
f 50/49/50 52/50/52 51/51/51 
f 50/49/50 51/51/51 49/52/49 
f 50/49/50 49/52/49 45/47/45 
f 50/49/50 45/47/45 46/46/46 
f 52/50/52 50/49/50 46/46/46 
f 52/50/52 46/46/46 48/45/48 
f 51/51/51 52/50/52 48/45/48 
f 51/51/51 48/45/48 47/48/47 
f 49/52/49 51/51/51 47/48/47 
f 49/52/49 47/48/47 45/47/45 
v -0.200458 1.000000 7.159126
v 0.768455 1.000000 7.159126
v -0.200458 1.000000 8.128039
v 0.768455 1.000000 8.128040
v -0.103567 1.493163 7.256017
v 0.671564 1.493163 7.256017
v 0.041770 3.430989 7.401354
v 0.526227 3.430989 7.401354
v -0.103567 1.493163 8.031148
v 0.671564 1.493163 8.031148
v 0.041770 3.430989 7.885811
v 0.526227 3.430989 7.885811
v -0.006676 3.430989 7.352909
v 0.574672 3.430989 7.352909
v -0.006676 3.626000 7.352909
v 0.574672 3.626000 7.352909
v -0.006676 3.430989 7.934256
v 0.574672 3.430989 7.934256
v -0.006676 3.626000 7.934256
v 0.574672 3.626000 7.934256
vn 0.000000 -1.000000 0.000000
vn 0.000000 -1.000000 0.000000
vn 0.000000 -1.000000 0.000000
vn 0.000000 -1.000000 0.000000
vn -0.349843 -0.622936 -0.699686
vn 0.844778 -0.328538 -0.422389
vn -0.784011 0.481308 -0.392006
vn 0.316613 0.706243 -0.633227
vn -0.844778 -0.328538 0.422389
vn 0.349843 -0.622936 0.699686
vn -0.316613 0.706243 0.633227
vn 0.784011 0.481308 0.392006
vn -0.333333 -0.666667 -0.666667
vn 0.816497 -0.408248 -0.408248
vn -0.816497 0.408248 -0.408248
vn 0.333333 0.666667 -0.666667
vn -0.816497 -0.408248 0.408248
vn 0.333333 -0.666667 0.666667
vn -0.333333 0.666667 0.666667
vn 0.816497 0.408248 0.408248
vt 0.995049 0.004951
vt 0.004951 0.004951
vt 0.004951 0.995049
vt 0.995049 0.995049
vt 0.995049 0.995049
vt 0.995049 0.995049
vt 0.004951 0.995049
vt 0.004951 0.995049
vt 0.995049 0.004951
vt 0.995049 0.004951
vt 0.004951 0.004951
vt 0.004951 0.004951
vt 0.995049 0.995049
vt 0.995049 0.995049
vt 0.004951 0.995049
vt 0.004951 0.995049
vt 0.995049 0.004951
vt 0.995049 0.004951
vt 0.004951 0.004951
vt 0.004951 0.004951
g Cube
usemtl White
f 56/53/56 55/54/55 53/55/53 
f 56/53/56 53/55/53 54/56/54 
f 60/57/60 58/58/58 57/59/57 
f 60/57/60 57/59/57 59/60/59 
f 62/61/62 64/62/64 63/63/63 
f 62/61/62 63/63/63 61/64/61 
f 62/61/62 61/64/61 57/59/57 
f 62/61/62 57/59/57 58/58/58 
f 64/62/64 62/61/62 58/58/58 
f 64/62/64 58/58/58 60/57/60 
f 63/63/63 64/62/64 60/57/60 
f 63/63/63 60/57/60 59/60/59 
f 61/64/61 63/63/63 59/60/59 
f 61/64/61 59/60/59 57/59/57 
f 68/65/68 66/66/66 65/67/65 
f 68/65/68 65/67/65 67/68/67 
f 70/69/70 72/70/72 71/71/71 
f 70/69/70 71/71/71 69/72/69 
f 70/69/70 69/72/69 65/67/65 
f 70/69/70 65/67/65 66/66/66 
f 72/70/72 70/69/70 66/66/66 
f 72/70/72 66/66/66 68/65/68 
f 71/71/71 72/70/72 68/65/68 
f 71/71/71 68/65/68 67/68/67 
f 69/72/69 71/71/71 67/68/67 
f 69/72/69 67/68/67 65/67/65 
v -3.625000 3.626000 7.137118
v 0.625000 3.626000 7.137118
v -3.625000 3.626000 8.137117
v 0.625000 3.626000 8.137117
v 0.626000 3.687000 7.140118
v -3.624000 3.688001 7.140118
v -3.244000 3.878000 7.140118
v 0.244000 3.878000 7.140118
v 0.626000 3.687000 8.140118
v 0.244000 3.878000 8.140118
v -3.244000 3.878000 8.140118
v -3.624000 3.688000 8.140118
vn -0.341969 -0.645186 -0.683222
vn 0.818841 -0.402783 -0.408981
vn -0.814421 -0.413814 0.406788
vn 0.325105 -0.687324 0.649532
vn 0.394424 0.389348 -0.832369
vn -0.706978 0.028490 -0.706661
vn 0.000000 0.447214 -0.894427
vn 0.144505 0.935259 -0.323124
vn 0.750055 0.249061 0.612687
vn 0.252200 0.786367 0.563935
vn 0.000000 0.894427 0.447214
vn -0.242597 -0.019734 0.969926
vt 0.995049 0.004951
vt 0.004951 0.004951
vt 0.004951 0.995049
vt 0.995049 0.995049
vt 0.995049 0.995049
vt 0.500000 0.995049
vt 0.004951 0.004951
vt 0.995049 0.004951
vt 0.500000 0.004951
vt 0.252475 0.004951
vt 0.004951 0.995049
vt 0.747525 0.995049
vt 0.000000 0.000000
vt 0.000000 0.000000
vt 0.000000 0.000000
vt 0.000000 0.000000
g Generic
usemtl White
f 76/73/76 75/74/75 73/75/73 
f 76/73/76 73/75/73 74/76/74 
f 77/77/77 74/76/74 73/75/73 
f 77/77/77 73/75/73 78/83/78 
f 77/77/77 78/83/78 79/78/79 
f 77/77/77 79/78/79 80/84/80 
f 84/79/84 75/74/75 76/73/76 
f 84/79/84 76/73/76 81/80/81 
f 84/79/84 81/80/81 82/81/82 
f 84/79/84 82/81/82 83/82/83 
f 81/80/81 76/73/76 74/76/74 
f 81/80/81 74/76/74 77/77/77 
f 75/74/75 84/79/84 78/83/78 
f 75/74/75 78/83/78 73/75/73 
f 83/82/83 82/81/82 80/84/80 
f 83/82/83 80/84/80 79/78/79 
f 77/85/77 80/86/80 82/87/82 
f 77/85/77 82/87/82 81/88/81 
v -10.000000 0.000000 -10.000000
v -5.000000 0.000000 -10.000000
v 0.000000 0.000000 -10.000000
v 5.000000 0.000000 -10.000000
v 10.000000 0.000000 -10.000000
v -10.000000 0.000000 -5.000000
v -5.000000 0.000000 -5.000000
v 0.000000 0.000000 -5.000000
v 5.000000 0.000000 -5.000000
v 10.000000 0.000000 -5.000000
v -10.000000 0.000000 0.000000
v -5.000000 0.000000 0.000000
v 0.000000 0.000000 0.000000
v 5.000000 0.000000 0.000000
v 10.000000 0.000000 0.000000
v -10.000000 0.000000 5.000000
v -5.000000 0.000000 5.000000
v 0.000000 0.000000 5.000000
v 5.000000 0.000000 5.000000
v 10.000000 0.000000 5.000000
v -10.000000 0.000000 10.000000
v -5.000000 0.000000 10.000000
v 0.000000 0.000000 10.000000
v 5.000000 0.000000 10.000000
v 10.000000 0.000000 10.000000
vn 0.000000 1.000000 0.000000
vn 0.000000 1.000000 0.000000
vn 0.000000 1.000000 0.000000
vn 0.000000 1.000000 0.000000
vn 0.000000 1.000000 0.000000
vn 0.000000 1.000000 0.000000
vn 0.000000 1.000000 0.000000
vn 0.000000 1.000000 0.000000
vn 0.000000 1.000000 0.000000
vn 0.000000 1.000000 0.000000
vn 0.000000 1.000000 0.000000
vn 0.000000 1.000000 0.000000
vn 0.000000 1.000000 0.000000
vn 0.000000 1.000000 0.000000
vn 0.000000 1.000000 0.000000
vn 0.000000 1.000000 0.000000
vn 0.000000 1.000000 0.000000
vn 0.000000 1.000000 0.000000
vn 0.000000 1.000000 0.000000
vn 0.000000 1.000000 0.000000
vn 0.000000 1.000000 0.000000
vn 0.000000 1.000000 0.000000
vn 0.000000 1.000000 0.000000
vn 0.000000 1.000000 0.000000
vn 0.000000 1.000000 0.000000
vt 0.004951 0.747525
vt 0.252475 0.747525
vt 0.252475 0.995049
vt 0.004951 0.995049
vt 0.004951 0.500000
vt 0.252475 0.500000
vt 0.004951 0.252475
vt 0.252475 0.252475
vt 0.004951 0.004951
vt 0.500000 0.747525
vt 0.500000 0.995049
vt 0.500000 0.500000
vt 0.500000 0.252475
vt 0.252475 0.004951
vt 0.747525 0.747525
vt 0.747525 0.995049
vt 0.747525 0.500000
vt 0.747525 0.252475
vt 0.500000 0.004951
vt 0.995049 0.995049
vt 0.995049 0.747525
vt 0.995049 0.500000
vt 0.747525 0.004951
vt 0.995049 0.004951
vt 0.995049 0.252475
g Grid
usemtl Grass
f 90/89/90 91/90/91 86/91/86 
f 90/89/90 86/91/86 85/92/85 
f 95/93/95 96/94/96 91/90/91 
f 95/93/95 91/90/91 90/89/90 
f 100/95/100 101/96/101 96/94/96 
f 100/95/100 96/94/96 95/93/95 
f 105/97/105 106/102/106 101/96/101 
f 105/97/105 101/96/101 100/95/100 
f 91/90/91 92/98/92 87/99/87 
f 91/90/91 87/99/87 86/91/86 
f 96/94/96 97/100/97 92/98/92 
f 96/94/96 92/98/92 91/90/91 
f 101/96/101 102/101/102 97/100/97 
f 101/96/101 97/100/97 96/94/96 
f 106/102/106 107/107/107 102/101/102 
f 106/102/106 102/101/102 101/96/101 
f 92/98/92 93/103/93 88/104/88 
f 92/98/92 88/104/88 87/99/87 
f 97/100/97 98/105/98 93/103/93 
f 97/100/97 93/103/93 92/98/92 
f 102/101/102 103/106/103 98/105/98 
f 102/101/102 98/105/98 97/100/97 
f 107/107/107 108/111/108 103/106/103 
f 107/107/107 103/106/103 102/101/102 
f 93/103/93 94/109/94 89/108/89 
f 93/103/93 89/108/89 88/104/88 
f 98/105/98 99/110/99 94/109/94 
f 98/105/98 94/109/94 93/103/93 
f 103/106/103 104/113/104 99/110/99 
f 103/106/103 99/110/99 98/105/98 
f 108/111/108 109/112/109 104/113/104 
f 108/111/108 104/113/104 103/106/103 
v -3.500000 0.750000 8.250000
v -3.500000 0.750000 8.625000
v -3.500000 0.500000 8.625000
v -3.500000 0.500000 9.000000
v -3.500000 0.250000 9.000000
v -3.500000 0.250000 9.375000
v -3.500000 0.000000 9.375000
v -3.500000 0.000000 8.250000
v 0.500000 0.750000 8.250000
v 0.500000 0.750000 8.625000
v 0.500000 0.500000 8.625000
v 0.500000 0.500000 9.000000
v 0.500000 0.250000 9.000000
v 0.500000 0.250000 9.375000
v 0.500000 0.000000 9.375000
v 0.500000 0.000000 8.250000
vn -0.408248 0.816497 -0.408248
vn -0.666667 0.333333 0.666667
vn -0.666667 0.666667 0.333333
vn -0.666667 0.333333 0.666667
vn -0.666667 0.666667 0.333333
vn -0.666667 0.333333 0.666667
vn -0.408248 -0.816497 0.408248
vn -0.937043 -0.156174 -0.312348
vn 0.408248 0.408248 -0.816497
vn 0.666667 0.666667 0.333333
vn 0.666667 0.333333 0.666667
vn 0.666667 0.666667 0.333333
vn 0.666667 0.333333 0.666667
vn 0.666667 0.666667 0.333333
vn 0.408248 -0.408248 0.816497
vn 0.937043 -0.312348 -0.156174
vt 0.004950 0.639233
vt 0.004950 0.546411
vt 0.995049 0.546411
vt 0.995049 0.639233
vt 0.004950 0.546411
vt 0.995049 0.546411
vt 0.004950 0.453589
vt 0.995049 0.453589
vt 0.004950 0.453589
vt 0.995049 0.453589
vt 0.004950 0.360767
vt 0.995049 0.360767
vt 0.004950 0.360767
vt 0.995049 0.360767
vt 0.004950 0.639233
vt 0.995049 0.639233
g Extrusion
usemtl White
f 110/114/110 111/115/111 119/116/119 
f 110/114/110 119/116/119 118/117/118 
f 111/115/111 112/118/112 120/119/120 
f 111/115/111 120/119/120 119/116/119 
f 112/118/112 113/120/113 121/121/121 
f 112/118/112 121/121/121 120/119/120 
f 113/120/113 114/122/114 122/123/122 
f 113/120/113 122/123/122 121/121/121 
f 114/122/114 115/124/115 123/125/123 
f 114/122/114 123/125/123 122/123/122 
f 115/124/115 116/126/116 124/127/124 
f 115/124/115 124/127/124 123/125/123 
f 116/126/116 117/128/117 125/129/125 
f 116/126/116 125/129/125 124/127/124 
f 117/128/117 110/114/110 118/117/118 
f 117/128/117 118/117/118 125/129/125 
f 117/128/117 116/126/116 115/124/115 
f 117/128/117 115/124/115 114/122/114 
f 117/128/117 114/122/114 113/120/113 
f 117/128/117 113/120/113 112/118/112 
f 117/128/117 112/118/112 111/115/111 
f 117/128/117 111/115/111 110/114/110 
f 125/129/125 118/117/118 119/116/119 
f 125/129/125 119/116/119 120/119/120 
f 125/129/125 120/119/120 121/121/121 
f 125/129/125 121/121/121 122/123/122 
f 125/129/125 122/123/122 123/125/123 
f 125/129/125 123/125/123 124/127/124 
v -1.500000 5.000000 8.500000
v -4.500000 3.500000 8.500000
v -4.500000 3.250000 8.500000
v -1.500000 4.750000 8.500000
v 1.500000 3.250000 8.500000
v 1.500000 3.500000 8.500000
vn 0.000000 0.000000 1.000000
vn 0.000000 0.000000 1.000000
vn 0.000000 0.000000 1.000000
vn 0.000000 0.000000 1.000000
vn 0.000000 0.000000 1.000000
vn 0.000000 0.000000 1.000000
vt 0.000000 0.000000
vt 0.000000 0.000000
vt 0.000000 0.000000
vt 0.000000 0.000000
vt 0.000000 0.000000
vt 0.000000 0.000000
g Generic
usemtl White
f 126/130/126 127/131/127 128/132/128 
f 126/130/126 128/132/128 129/133/129 
f 126/130/126 129/133/129 130/134/130 
f 126/130/126 130/134/130 131/135/131 
v 0.230615 3.884692 7.794628
v -3.230616 3.884692 7.794628
v -3.230615 3.884692 8.068563
v 0.230615 3.884692 8.068563
v -1.500000 4.750000 7.794628
v -1.500000 4.750000 8.068563
vn 0.000000 -0.707107 -0.707107
vn 0.000000 -0.894427 -0.447214
vn 0.000000 -0.707107 0.707107
vn 0.000000 -0.894427 0.447214
vn 0.000000 0.000000 -1.000000
vn 0.000000 0.000000 1.000000
vt 0.000000 0.000000
vt 0.000000 0.000000
vt 0.000000 0.000000
vt 0.000000 0.000000
vt 0.000000 0.000000
vt 0.000000 0.000000
g Generic
usemtl Tan
f 136/136/136 132/137/132 133/141/133 
f 137/138/137 134/139/134 135/140/135 
f 135/140/135 134/139/134 133/141/133 
f 135/140/135 133/141/133 132/137/132 
v -1.500000 5.000000 5.500000
v -4.500000 3.500000 5.500000
v -4.500000 3.250000 5.500000
v -1.500000 4.750000 5.500000
v 1.500000 3.250000 5.500000
v 1.500000 3.500000 5.500000
v -4.500000 3.250000 8.500000
v -1.500000 4.750000 8.500000
v 1.500000 3.250000 8.500000
vn 0.000000 0.000000 -1.000000
vn 0.000000 0.000000 -1.000000
vn 0.316228 -0.632456 -0.707107
vn -0.110432 -0.662589 -0.740797
vn -0.316228 -0.632456 -0.707107
vn 0.000000 0.000000 -1.000000
vn 0.447214 -0.894427 0.000000
vn 0.164399 -0.986394 0.000000
vn -0.447214 -0.894427 0.000000
vt 0.004950 0.747525
vt 0.500000 0.747525
vt 0.500000 0.252475
vt 0.004950 0.252475
vt 0.995049 0.747525
vt 0.995049 0.252475
vt 0.500000 0.747525
vt 0.995049 0.747525
vt 0.004950 0.747525
g Extrusion
usemtl White
f 140/142/140 141/143/141 145/144/145 
f 140/142/140 145/144/145 144/145/144 
f 141/143/141 142/146/142 146/147/146 
f 141/143/141 146/147/146 145/144/145 
f 141/143/141 140/142/140 138/148/138 
f 141/143/141 138/148/138 143/149/143 
f 141/143/141 143/149/143 142/146/142 
f 138/148/138 140/142/140 139/150/139 
v 4.500000 3.250000 5.500000
v 4.500000 3.500000 5.500000
v 0.000000 5.750000 5.500000
v -4.500000 3.500000 5.500000
v -4.500000 3.250000 5.500000
v 0.000000 5.500000 5.500000
vn 0.000000 0.000000 1.000000
vn 0.000000 0.000000 1.000000
vn 0.000000 0.000000 1.000000
vn 0.000000 0.000000 1.000000
vn 0.000000 0.000000 1.000000
vn 0.000000 0.000000 1.000000
vt 0.500000 0.004950
vt 0.094959 0.004950
vt 0.499758 0.004950
vt 0.905041 0.004950
vt 0.905041 0.004950
vt 0.094959 0.004950
g Generic
usemtl White
f 149/151/149 150/152/150 152/153/152 
f 149/151/149 152/153/152 147/154/147 
f 149/151/149 147/154/147 148/155/148 
f 152/153/152 150/152/150 151/156/151 
v 4.500000 3.250000 -5.500000
v 4.500000 3.500000 -5.500000
v 0.000000 5.750000 -5.500000
v -4.500000 3.500000 -5.500000
v -4.500000 3.250000 -5.500000
v 0.000000 5.500000 -5.500000
v 4.500000 3.250000 5.500000
v 4.500000 3.500000 5.500000
v -4.500000 3.500000 5.500000
v -4.500000 3.250000 5.500000
vn 0.894427 0.000000 -0.447214
vn 0.447214 0.000000 -0.894427
vn 0.000000 0.000000 -1.000000
vn -0.707107 0.000000 -0.707107
vn -0.707107 0.000000 -0.707107
vn 0.000000 0.000000 -1.000000
vn 1.000000 0.000000 0.000000
vn 1.000000 0.000000 0.000000
vn -1.000000 0.000000 0.000000
vn -1.000000 0.000000 0.000000
vt 0.905041 0.995050
vt 0.905041 0.004950
vt 0.905041 0.004950
vt 0.094959 0.995050
vt 0.094959 0.995050
vt 0.094959 0.004950
vt 0.094959 0.004950
vt 0.499758 0.995050
vt 0.500000 0.995050
vt 0.905041 0.995050
g Generic
usemtl White
f 153/157/153 154/166/154 160/158/160 
f 153/157/153 160/158/160 159/159/159 
f 156/160/156 157/161/157 162/162/162 
f 156/160/156 162/162/162 161/163/161 
f 158/164/158 157/161/157 156/160/156 
f 158/164/158 156/160/156 155/165/155 
f 158/164/158 155/165/155 154/166/154 
f 158/164/158 154/166/154 153/157/153 
v -4.500000 3.500000 5.500000
v -4.500000 3.250000 5.500000
v 1.500000 3.250000 5.500000
v 1.500000 3.500000 5.500000
v -4.500000 3.500000 8.500000
v -4.500000 3.250000 8.500000
v 1.500000 3.250000 8.500000
v 1.500000 3.500000 8.500000
vn -1.000000 0.000000 0.000000
vn -1.000000 0.000000 0.000000
vn 1.000000 0.000000 0.000000
vn 1.000000 0.000000 0.000000
vn -1.000000 0.000000 0.000000
vn -1.000000 0.000000 0.000000
vn 1.000000 0.000000 0.000000
vn 1.000000 0.000000 0.000000
vt 0.004950 0.747525
vt 0.004950 0.747525
vt 0.004950 0.252475
vt 0.004950 0.252475
vt 0.995049 0.747525
vt 0.995049 0.747525
vt 0.995049 0.252475
vt 0.995049 0.252475
g Generic
usemtl White
f 163/167/163 164/168/164 168/169/168 
f 163/167/163 168/169/168 167/170/167 
f 165/171/165 166/172/166 170/173/170 
f 165/171/165 170/173/170 169/174/169 
v -3.749385 1.000000 7.159126
v -2.780472 1.000000 7.159126
v -3.749385 1.493163 7.159126
v -2.780472 1.493163 7.159126
v -3.749385 1.000000 8.128039
v -2.780472 1.000000 8.128039
v -3.749385 1.493163 8.128039
v -2.780472 1.493163 8.128039
vn -0.447214 0.000000 -0.894427
vn 0.894427 0.000000 -0.447214
vn -0.816497 0.408248 -0.408248
vn 0.333333 0.666667 -0.666667
vn -0.894427 0.000000 0.447214
vn 0.447214 0.000000 0.894427
vn -0.333333 0.666667 0.666667
vn 0.816497 0.408248 0.408248
vt 0.995049 0.995049
vt 0.004951 0.995049
vt 0.004951 0.995049
vt 0.995049 0.004951
vt 0.995049 0.004951
vt 0.004951 0.004951
vt 0.004951 0.004951
vt 0.995049 0.995049
g Generic
usemtl Tan
f 174/175/174 172/182/172 171/176/171 
f 174/175/174 171/176/171 173/177/173 
f 176/178/176 178/179/178 177/180/177 
f 176/178/176 177/180/177 175/181/175 
f 178/179/178 176/178/176 172/182/172 
f 178/179/178 172/182/172 174/175/174 
f 177/180/177 178/179/178 174/175/174 
f 177/180/177 174/175/174 173/177/173 
f 175/181/175 177/180/177 173/177/173 
f 175/181/175 173/177/173 171/176/171 
v -0.200458 1.000000 7.159126
v 0.768455 1.000000 7.159126
v -0.200458 1.493163 7.159126
v 0.768455 1.493163 7.159126
v -0.200458 1.000000 8.128039
v 0.768455 1.000000 8.128040
v -0.200458 1.493163 8.128039
v 0.768455 1.493163 8.128039
vn -0.447214 0.000000 -0.894427
vn 0.894427 0.000000 -0.447214
vn -0.816497 0.408248 -0.408248
vn 0.333333 0.666667 -0.666667
vn -0.894427 0.000000 0.447213
vn 0.447213 0.000001 0.894427
vn -0.333333 0.666667 0.666666
vn 0.816496 0.408249 0.408248
vt 0.995049 0.995049
vt 0.004951 0.995049
vt 0.004951 0.995049
vt 0.995049 0.004951
vt 0.995049 0.004951
vt 0.004951 0.004951
vt 0.004951 0.004951
vt 0.995049 0.995049
g Generic
usemtl Tan
f 182/183/182 180/190/180 179/184/179 
f 182/183/182 179/184/179 181/185/181 
f 184/186/184 186/187/186 185/188/185 
f 184/186/184 185/188/185 183/189/183 
f 186/187/186 184/186/184 180/190/180 
f 186/187/186 180/190/180 182/183/182 
f 185/188/185 186/187/186 182/183/182 
f 185/188/185 182/183/182 181/185/181 
f 183/189/183 185/188/185 181/185/181 
f 183/189/183 181/185/181 179/184/179 
v -1.500000 5.000000 5.500000
v -4.500000 3.500000 5.500000
v 1.500000 3.500000 5.500000
v -1.500000 5.000000 8.500000
v -4.500000 3.500000 8.500000
v 1.500000 3.500000 8.500000
vn -0.164399 0.986394 0.000000
vn -0.447214 0.894427 0.000000
vn 0.447214 0.894427 0.000000
vn 0.164399 0.986394 0.000000
vn -0.447214 0.894427 0.000000
vn 0.447214 0.894427 0.000000
vt 0.500000 0.747525
vt 0.004950 0.747525
vt 0.004950 0.252475
vt 0.500000 0.252475
vt 0.995049 0.747525
vt 0.995049 0.252475
g Generic
usemtl Roof
f 187/191/187 188/192/188 191/193/191 
f 187/191/187 191/193/191 190/194/190 
f 189/195/189 187/191/187 190/194/190 
f 189/195/189 190/194/190 192/196/192 
v 4.500000 3.250000 -5.500000
v -4.500000 3.250000 -5.500000
v 0.000000 5.500000 -5.500000
v 4.500000 3.250000 5.500000
v -4.500000 3.250000 5.500000
v 0.000000 5.500000 5.500000
vn -0.447214 -0.894427 0.000000
vn 0.447214 -0.894427 0.000000
vn -0.164399 -0.986394 0.000000
vn -0.447214 -0.894427 0.000000
vn 0.447214 -0.894427 0.000000
vn 0.164399 -0.986394 0.000000
vt 0.094959 0.995050
vt 0.499758 0.004950
vt 0.094959 0.004950
vt 0.499758 0.995050
vt 0.905041 0.995050
vt 0.905041 0.004950
g Generic
usemtl White
f 194/197/194 195/200/195 198/198/198 
f 194/197/194 198/198/198 197/199/197 
f 195/200/195 193/201/193 196/202/196 
f 195/200/195 196/202/196 198/198/198 
