mtllib cube.mtl
o cube.obj
v -4.521314 0.000000 1.889633
v 3.932982 0.000000 3.510615
v 1.109646 0.000000 -4.621510
vn 0.000000 1.000000 0.000000
vn 0.000000 1.000000 0.000000
vn 0.000000 1.000000 0.000000
vt 0.000000 0.000000
vt 0.000000 0.000000
vt 0.000000 0.000000
g Line Segment
usemtl Material1
f 2/1/2 3/2/3 1/3/1 
v 0.046954 3.553874 0.020612
v 0.161541 3.553874 0.435954
v -0.255449 3.553874 0.327518
vn 0.000000 -1.000000 0.000000
vn 0.000000 -1.000000 0.000000
vn 0.000000 -1.000000 0.000000
vt 0.000000 0.000000
vt 0.000000 0.000000
vt 0.000000 0.000000
g Line Segment
usemtl LightSource
f 5/4/5 6/5/6 4/6/4 
v -0.243345 0.872724 -0.595953
v 0.589786 0.319649 -0.595953
v 0.281277 1.662994 -0.279340
v 1.114408 1.109919 -0.279340
v -0.418456 0.608944 0.352601
v 0.414675 0.055868 0.352601
v 0.106166 1.399214 0.669214
v 0.939297 0.846139 0.669214
vn -0.510718 -0.166635 -0.843445
vn 0.537561 -0.666523 -0.516503
vn -0.394584 0.881899 -0.257989
vn 0.744199 0.518342 -0.421294
vn -0.965914 0.021270 0.257989
vn -0.188778 -0.887059 0.421294
vn -0.044703 0.535352 0.843445
vn 0.822936 -0.236645 0.516503
vt 0.995049 0.995049
vt 0.995049 0.995049
vt 0.004950 0.995049
vt 0.004950 0.995049
vt 0.995049 0.004950
vt 0.995049 0.004950
vt 0.004950 0.004950
vt 0.004950 0.004950
g Cube
usemtl Material2
f 10/7/10 8/8/8 7/9/7 
f 10/7/10 7/9/7 9/10/9 
f 12/11/12 14/12/14 13/13/13 
f 12/11/12 13/13/13 11/14/11 
f 12/11/12 11/14/11 7/9/7 
f 12/11/12 7/9/7 8/8/8 
f 14/12/14 12/11/12 8/8/8 
f 14/12/14 8/8/8 10/7/10 
f 13/13/13 14/12/14 10/7/10 
f 13/13/13 10/7/10 9/10/9 
f 11/14/11 13/13/13 9/10/9 
f 11/14/11 9/10/9 7/9/7 
