mtllib cube-light.mtl
o cube-light.obj
v -4.521314 0.000000 1.889633
v 3.932982 0.000000 3.510615
v 1.109646 0.000000 -4.621510
vn 0.000000 1.000000 0.000000
vn 0.000000 1.000000 0.000000
vn 0.000000 1.000000 0.000000
vt 0.000000 0.000000
vt 0.000000 0.000000
vt 0.000000 0.000000
g Line Segment
usemtl Material1
f 2/1/2 3/2/3 1/3/1 
v 0.929093 1.000000 -0.318328
v -0.796666 1.000000 -0.465822
v -0.061520 1.000000 1.102477
vn 0.000000 1.000000 0.000000
vn 0.000000 1.000000 0.000000
vn 0.000000 1.000000 0.000000
vt 0.000000 0.000000
vt 0.000000 0.000000
vt 0.000000 0.000000
g Line Segment
usemtl Material1
f 5/4/5 6/5/6 4/6/4 
v -0.087552 3.990167 -0.221905
v 0.107956 3.709840 -0.257738
v 0.101819 4.087774 0.047727
v 0.297327 3.807447 0.011894
v -0.297327 3.817019 -0.011894
v -0.101820 3.536693 -0.047727
v -0.107956 3.914627 0.257738
v 0.087552 3.634300 0.221905
vn -0.150059 0.418465 -0.895751
vn 0.488767 -0.576315 -0.654956
vn 0.009660 0.987715 0.155969
vn 0.963986 0.253346 0.080908
vn -0.938714 0.344400 0.014308
vn -0.584702 -0.797181 -0.150423
vn -0.229226 0.125368 0.965266
vn 0.440287 -0.755800 0.484679
vt 0.995049 0.995049
vt 0.995049 0.995049
vt 0.004950 0.995049
vt 0.004950 0.995049
vt 0.995049 0.004950
vt 0.995049 0.004950
vt 0.004950 0.004950
vt 0.004950 0.004950
g Cube
usemtl LightSource
f 10/7/10 8/8/8 7/9/7 
f 10/7/10 7/9/7 9/10/9 
f 12/11/12 14/12/14 13/13/13 
f 12/11/12 13/13/13 11/14/11 
f 12/11/12 11/14/11 7/9/7 
f 12/11/12 7/9/7 8/8/8 
f 14/12/14 12/11/12 8/8/8 
f 14/12/14 8/8/8 10/7/10 
f 13/13/13 14/12/14 10/7/10 
f 13/13/13 10/7/10 9/10/9 
f 11/14/11 13/13/13 9/10/9 
f 11/14/11 9/10/9 7/9/7 
