mtllib cylinders.mtl
o cylinders.obj
v -4.521314 0.000000 1.889633
v 3.932982 0.000000 3.510615
v 1.109646 0.000000 -4.621510
vn 0.000000 1.000000 0.000000
vn 0.000000 1.000000 0.000000
vn 0.000000 1.000000 0.000000
vt 0.000000 0.000000
vt 0.000000 0.000000
vt 0.000000 0.000000
g Line Segment
usemtl Material1
f 2/1/2 3/2/3 1/3/1 
v 2.514194 6.491466 3.955377
v 2.474159 6.433049 4.044145
v 2.377506 6.433774 4.103749
v 2.280853 6.493214 4.099273
v 2.240818 6.576550 4.033340
v 2.280853 6.634966 3.944572
v 2.377506 6.634242 3.884969
v 2.474159 6.574801 3.889444
vn -0.388908 -0.679248 -0.622393
vn -0.388913 -0.679239 -0.622399
vn -0.388909 -0.679243 -0.622397
vn -0.388905 -0.679249 -0.622394
vn -0.388903 -0.679250 -0.622393
vn -0.388902 -0.679248 -0.622397
vn -0.388912 -0.679251 -0.622388
vn -0.388922 -0.679255 -0.622377
vt 0.995049 0.500000
vt 0.850053 0.850053
vt 0.500000 0.995049
vt 0.149947 0.850053
vt 0.004951 0.500000
vt 0.149947 0.149947
vt 0.500000 0.004951
vt 0.850053 0.149947
g Polygon
usemtl LightSource
f 4/4/4 5/5/5 6/6/6 
f 4/4/4 6/6/6 7/7/7 
f 4/4/4 7/7/7 8/8/8 
f 4/4/4 8/8/8 9/9/9 
f 4/4/4 9/9/9 10/10/10 
f 4/4/4 10/10/10 11/11/11 
v 0.273346 0.000000 0.403948
v 0.273346 1.000000 0.403948
v 0.239852 0.000000 0.528948
v 0.239852 1.000000 0.528948
v 0.148346 0.000000 0.620455
v 0.148346 1.000000 0.620455
v 0.023346 0.000000 0.653948
v 0.023346 1.000000 0.653948
v -0.101654 0.000000 0.620455
v -0.101654 1.000000 0.620455
v -0.193160 0.000000 0.528948
v -0.193160 1.000000 0.528948
v -0.226654 0.000000 0.403948
v -0.226654 1.000000 0.403948
v -0.193160 0.000000 0.278948
v -0.193160 1.000000 0.278948
v -0.101654 0.000000 0.187442
v -0.101654 1.000000 0.187442
v 0.023346 0.000000 0.153948
v 0.023346 1.000000 0.153948
v 0.148346 0.000000 0.187442
v 0.148346 1.000000 0.187442
v 0.239852 0.000000 0.278948
v 0.239852 1.000000 0.278948
v 0.023346 1.000000 0.403948
v 0.023346 0.000000 0.403948
vn 0.820795 -0.566499 -0.073310
vn 0.820795 0.566499 0.073310
vn 0.747484 -0.566499 0.346909
vn 0.674174 0.566499 0.473886
vn 0.473886 -0.566499 0.674174
vn 0.346909 0.566499 0.747484
vn 0.073310 -0.566499 0.820795
vn -0.073310 0.566499 0.820795
vn -0.346909 -0.566499 0.747484
vn -0.473886 0.566499 0.674174
vn -0.674174 -0.566499 0.473886
vn -0.747484 0.566499 0.346909
vn -0.820795 -0.566499 0.073310
vn -0.820795 0.566499 -0.073310
vn -0.747484 -0.566499 -0.346909
vn -0.674174 0.566499 -0.473886
vn -0.473886 -0.566499 -0.674174
vn -0.346909 0.566499 -0.747484
vn -0.073310 -0.566499 -0.820795
vn 0.073310 0.566499 -0.820795
vn 0.346909 -0.566499 -0.747484
vn 0.473886 0.566499 -0.674174
vn 0.674174 -0.566499 -0.473886
vn 0.747484 0.566499 -0.346909
vn 0.000000 1.000000 0.000000
vn 0.000000 -1.000000 0.000000
vt 0.928725 0.252475
vt 0.995049 0.500000
vt 0.995049 0.500000
vt 0.928725 0.252475
vt 0.500000 0.500000
vt 0.500000 0.500000
vt 0.747525 0.071275
vt 0.747525 0.071275
vt 0.500000 0.004950
vt 0.500000 0.004950
vt 0.252475 0.071275
vt 0.252475 0.071275
vt 0.071275 0.252475
vt 0.071275 0.252475
vt 0.004950 0.500000
vt 0.004950 0.500000
vt 0.071275 0.747525
vt 0.071275 0.747525
vt 0.252475 0.928725
vt 0.252475 0.928725
vt 0.500000 0.995049
vt 0.500000 0.995049
vt 0.747525 0.928725
vt 0.747525 0.928725
vt 0.928725 0.747525
vt 0.928725 0.747525
g Cylinder
usemtl Material2
f 14/12/14 12/13/12 13/14/13 
f 14/12/14 13/14/13 15/15/15 
f 15/15/15 13/14/13 36/16/36 
f 12/13/12 14/12/14 37/17/37 
f 16/18/16 14/12/14 15/15/15 
f 16/18/16 15/15/15 17/19/17 
f 17/19/17 15/15/15 36/16/36 
f 14/12/14 16/18/16 37/17/37 
f 18/20/18 16/18/16 17/19/17 
f 18/20/18 17/19/17 19/21/19 
f 19/21/19 17/19/17 36/16/36 
f 16/18/16 18/20/18 37/17/37 
f 20/22/20 18/20/18 19/21/19 
f 20/22/20 19/21/19 21/23/21 
f 21/23/21 19/21/19 36/16/36 
f 18/20/18 20/22/20 37/17/37 
f 22/24/22 20/22/20 21/23/21 
f 22/24/22 21/23/21 23/25/23 
f 23/25/23 21/23/21 36/16/36 
f 20/22/20 22/24/22 37/17/37 
f 24/26/24 22/24/22 23/25/23 
f 24/26/24 23/25/23 25/27/25 
f 25/27/25 23/25/23 36/16/36 
f 22/24/22 24/26/24 37/17/37 
f 26/28/26 24/26/24 25/27/25 
f 26/28/26 25/27/25 27/29/27 
f 27/29/27 25/27/25 36/16/36 
f 24/26/24 26/28/26 37/17/37 
f 28/30/28 26/28/26 27/29/27 
f 28/30/28 27/29/27 29/31/29 
f 29/31/29 27/29/27 36/16/36 
f 26/28/26 28/30/28 37/17/37 
f 30/32/30 28/30/28 29/31/29 
f 30/32/30 29/31/29 31/33/31 
f 31/33/31 29/31/29 36/16/36 
f 28/30/28 30/32/30 37/17/37 
f 32/34/32 30/32/30 31/33/31 
f 32/34/32 31/33/31 33/35/33 
f 33/35/33 31/33/31 36/16/36 
f 30/32/30 32/34/32 37/17/37 
f 34/36/34 32/34/32 33/35/33 
f 34/36/34 33/35/33 35/37/35 
f 35/37/35 33/35/33 36/16/36 
f 32/34/32 34/36/34 37/17/37 
f 12/13/12 34/36/34 35/37/35 
f 12/13/12 35/37/35 13/14/13 
f 13/14/13 35/37/35 36/16/36 
f 34/36/34 12/13/12 37/17/37 
v 0.250000 0.000000 1.017781
v 0.250000 1.000000 1.017781
v 0.216506 0.000000 1.142781
v 0.216506 1.000000 1.142781
v 0.125000 0.000000 1.234288
v 0.125000 1.000000 1.234288
v 0.000000 0.000000 1.267781
v 0.000000 1.000000 1.267781
v -0.125000 0.000000 1.234288
v -0.125000 1.000000 1.234288
v -0.216506 0.000000 1.142781
v -0.216506 1.000000 1.142781
v -0.250000 0.000000 1.017781
v -0.250000 1.000000 1.017781
v -0.216506 0.000000 0.892781
v -0.216506 1.000000 0.892781
v -0.125000 0.000000 0.801275
v -0.125000 1.000000 0.801275
v 0.000000 0.000000 0.767781
v 0.000000 1.000000 0.767781
v 0.125000 0.000000 0.801275
v 0.125000 1.000000 0.801275
v 0.216506 0.000000 0.892781
v 0.216506 1.000000 0.892781
v 0.000000 1.000000 1.017781
v 0.000000 0.000000 1.017781
vn 0.820795 -0.566499 -0.073310
vn 0.820795 0.566499 0.073310
vn 0.747484 -0.566499 0.346909
vn 0.674174 0.566499 0.473886
vn 0.473886 -0.566499 0.674174
vn 0.346909 0.566499 0.747484
vn 0.073310 -0.566499 0.820795
vn -0.073310 0.566499 0.820795
vn -0.346909 -0.566499 0.747484
vn -0.473886 0.566499 0.674174
vn -0.674174 -0.566499 0.473886
vn -0.747484 0.566499 0.346909
vn -0.820795 -0.566499 0.073310
vn -0.820795 0.566499 -0.073310
vn -0.747484 -0.566499 -0.346909
vn -0.674174 0.566499 -0.473886
vn -0.473886 -0.566499 -0.674174
vn -0.346909 0.566499 -0.747484
vn -0.073310 -0.566499 -0.820795
vn 0.073310 0.566499 -0.820795
vn 0.346909 -0.566499 -0.747484
vn 0.473886 0.566499 -0.674174
vn 0.674174 -0.566499 -0.473886
vn 0.747484 0.566499 -0.346909
vn 0.000000 1.000000 0.000000
vn 0.000000 -1.000000 0.000000
vt 0.928725 0.252475
vt 0.995049 0.500000
vt 0.995049 0.500000
vt 0.928725 0.252475
vt 0.500000 0.500000
vt 0.500000 0.500000
vt 0.747525 0.071275
vt 0.747525 0.071275
vt 0.500000 0.004950
vt 0.500000 0.004950
vt 0.252475 0.071275
vt 0.252475 0.071275
vt 0.071275 0.252475
vt 0.071275 0.252475
vt 0.004950 0.500000
vt 0.004950 0.500000
vt 0.071275 0.747525
vt 0.071275 0.747525
vt 0.252475 0.928725
vt 0.252475 0.928725
vt 0.500000 0.995049
vt 0.500000 0.995049
vt 0.747525 0.928725
vt 0.747525 0.928725
vt 0.928725 0.747525
vt 0.928725 0.747525
g Cylinder
usemtl Material2
f 40/38/40 38/39/38 39/40/39 
f 40/38/40 39/40/39 41/41/41 
f 41/41/41 39/40/39 62/42/62 
f 38/39/38 40/38/40 63/43/63 
f 42/44/42 40/38/40 41/41/41 
f 42/44/42 41/41/41 43/45/43 
f 43/45/43 41/41/41 62/42/62 
f 40/38/40 42/44/42 63/43/63 
f 44/46/44 42/44/42 43/45/43 
f 44/46/44 43/45/43 45/47/45 
f 45/47/45 43/45/43 62/42/62 
f 42/44/42 44/46/44 63/43/63 
f 46/48/46 44/46/44 45/47/45 
f 46/48/46 45/47/45 47/49/47 
f 47/49/47 45/47/45 62/42/62 
f 44/46/44 46/48/46 63/43/63 
f 48/50/48 46/48/46 47/49/47 
f 48/50/48 47/49/47 49/51/49 
f 49/51/49 47/49/47 62/42/62 
f 46/48/46 48/50/48 63/43/63 
f 50/52/50 48/50/48 49/51/49 
f 50/52/50 49/51/49 51/53/51 
f 51/53/51 49/51/49 62/42/62 
f 48/50/48 50/52/50 63/43/63 
f 52/54/52 50/52/50 51/53/51 
f 52/54/52 51/53/51 53/55/53 
f 53/55/53 51/53/51 62/42/62 
f 50/52/50 52/54/52 63/43/63 
f 54/56/54 52/54/52 53/55/53 
f 54/56/54 53/55/53 55/57/55 
f 55/57/55 53/55/53 62/42/62 
f 52/54/52 54/56/54 63/43/63 
f 56/58/56 54/56/54 55/57/55 
f 56/58/56 55/57/55 57/59/57 
f 57/59/57 55/57/55 62/42/62 
f 54/56/54 56/58/56 63/43/63 
f 58/60/58 56/58/56 57/59/57 
f 58/60/58 57/59/57 59/61/59 
f 59/61/59 57/59/57 62/42/62 
f 56/58/56 58/60/58 63/43/63 
f 60/62/60 58/60/58 59/61/59 
f 60/62/60 59/61/59 61/63/61 
f 61/63/61 59/61/59 62/42/62 
f 58/60/58 60/62/60 63/43/63 
f 38/39/38 60/62/60 61/63/61 
f 38/39/38 61/63/61 39/40/39 
f 39/40/39 61/63/61 62/42/62 
f 60/62/60 38/39/38 63/43/63 
v 1.408810 0.000000 -0.368035
v 1.408810 1.000000 -0.368035
v 1.375316 0.000000 -0.243035
v 1.375316 1.000000 -0.243035
v 1.283810 0.000000 -0.151529
v 1.283810 1.000000 -0.151529
v 1.158810 0.000000 -0.118035
v 1.158810 1.000000 -0.118035
v 1.033810 0.000000 -0.151529
v 1.033810 1.000000 -0.151529
v 0.942303 0.000000 -0.243035
v 0.942303 1.000000 -0.243035
v 0.908810 0.000000 -0.368035
v 0.908810 1.000000 -0.368035
v 0.942303 0.000000 -0.493035
v 0.942303 1.000000 -0.493035
v 1.033810 0.000000 -0.584541
v 1.033810 1.000000 -0.584541
v 1.158810 0.000000 -0.618035
v 1.158810 1.000000 -0.618035
v 1.283810 0.000000 -0.584541
v 1.283810 1.000000 -0.584541
v 1.375316 0.000000 -0.493035
v 1.375316 1.000000 -0.493035
v 1.158810 1.000000 -0.368035
v 1.158810 0.000000 -0.368035
vn 0.820795 -0.566499 -0.073310
vn 0.820795 0.566499 0.073310
vn 0.747484 -0.566500 0.346909
vn 0.674174 0.566499 0.473886
vn 0.473886 -0.566499 0.674174
vn 0.346909 0.566499 0.747484
vn 0.073310 -0.566499 0.820795
vn -0.073310 0.566499 0.820795
vn -0.346909 -0.566499 0.747484
vn -0.473886 0.566499 0.674174
vn -0.674174 -0.566499 0.473886
vn -0.747484 0.566499 0.346909
vn -0.820795 -0.566499 0.073310
vn -0.820795 0.566499 -0.073310
vn -0.747484 -0.566499 -0.346909
vn -0.674174 0.566499 -0.473886
vn -0.473886 -0.566499 -0.674174
vn -0.346909 0.566499 -0.747484
vn -0.073310 -0.566499 -0.820795
vn 0.073310 0.566499 -0.820795
vn 0.346909 -0.566499 -0.747484
vn 0.473886 0.566499 -0.674174
vn 0.674174 -0.566499 -0.473886
vn 0.747484 0.566499 -0.346909
vn 0.000000 1.000000 0.000000
vn 0.000000 -1.000000 0.000000
vt 0.928725 0.252475
vt 0.995049 0.500000
vt 0.995049 0.500000
vt 0.928725 0.252475
vt 0.500000 0.500000
vt 0.500000 0.500000
vt 0.747525 0.071275
vt 0.747525 0.071275
vt 0.500000 0.004950
vt 0.500000 0.004950
vt 0.252475 0.071275
vt 0.252475 0.071275
vt 0.071275 0.252475
vt 0.071275 0.252475
vt 0.004950 0.500000
vt 0.004950 0.500000
vt 0.071275 0.747525
vt 0.071275 0.747525
vt 0.252475 0.928725
vt 0.252475 0.928725
vt 0.500000 0.995049
vt 0.500000 0.995049
vt 0.747525 0.928725
vt 0.747525 0.928725
vt 0.928725 0.747525
vt 0.928725 0.747525
g Cylinder
usemtl Material2
f 66/64/66 64/65/64 65/66/65 
f 66/64/66 65/66/65 67/67/67 
f 67/67/67 65/66/65 88/68/88 
f 64/65/64 66/64/66 89/69/89 
f 68/70/68 66/64/66 67/67/67 
f 68/70/68 67/67/67 69/71/69 
f 69/71/69 67/67/67 88/68/88 
f 66/64/66 68/70/68 89/69/89 
f 70/72/70 68/70/68 69/71/69 
f 70/72/70 69/71/69 71/73/71 
f 71/73/71 69/71/69 88/68/88 
f 68/70/68 70/72/70 89/69/89 
f 72/74/72 70/72/70 71/73/71 
f 72/74/72 71/73/71 73/75/73 
f 73/75/73 71/73/71 88/68/88 
f 70/72/70 72/74/72 89/69/89 
f 74/76/74 72/74/72 73/75/73 
f 74/76/74 73/75/73 75/77/75 
f 75/77/75 73/75/73 88/68/88 
f 72/74/72 74/76/74 89/69/89 
f 76/78/76 74/76/74 75/77/75 
f 76/78/76 75/77/75 77/79/77 
f 77/79/77 75/77/75 88/68/88 
f 74/76/74 76/78/76 89/69/89 
f 78/80/78 76/78/76 77/79/77 
f 78/80/78 77/79/77 79/81/79 
f 79/81/79 77/79/77 88/68/88 
f 76/78/76 78/80/78 89/69/89 
f 80/82/80 78/80/78 79/81/79 
f 80/82/80 79/81/79 81/83/81 
f 81/83/81 79/81/79 88/68/88 
f 78/80/78 80/82/80 89/69/89 
f 82/84/82 80/82/80 81/83/81 
f 82/84/82 81/83/81 83/85/83 
f 83/85/83 81/83/81 88/68/88 
f 80/82/80 82/84/82 89/69/89 
f 84/86/84 82/84/82 83/85/83 
f 84/86/84 83/85/83 85/87/85 
f 85/87/85 83/85/83 88/68/88 
f 82/84/82 84/86/84 89/69/89 
f 86/88/86 84/86/84 85/87/85 
f 86/88/86 85/87/85 87/89/87 
f 87/89/87 85/87/85 88/68/88 
f 84/86/84 86/88/86 89/69/89 
f 64/65/64 86/88/86 87/89/87 
f 64/65/64 87/89/87 65/66/65 
f 65/66/65 87/89/87 88/68/88 
f 86/88/86 64/65/64 89/69/89 
v 0.988877 0.000000 -1.110872
v 0.988877 1.000000 -1.110872
v 0.955384 0.000000 -0.985872
v 0.955384 1.000000 -0.985872
v 0.863877 0.000000 -0.894366
v 0.863877 1.000000 -0.894366
v 0.738877 0.000000 -0.860872
v 0.738877 1.000000 -0.860872
v 0.613877 0.000000 -0.894366
v 0.613877 1.000000 -0.894366
v 0.522371 0.000000 -0.985872
v 0.522371 1.000000 -0.985872
v 0.488877 0.000000 -1.110872
v 0.488877 1.000000 -1.110872
v 0.522371 0.000000 -1.235872
v 0.522371 1.000000 -1.235872
v 0.613877 0.000000 -1.327378
v 0.613877 1.000000 -1.327378
v 0.738877 0.000000 -1.360872
v 0.738877 1.000000 -1.360872
v 0.863877 0.000000 -1.327378
v 0.863877 1.000000 -1.327378
v 0.955384 0.000000 -1.235872
v 0.955384 1.000000 -1.235872
v 0.738877 1.000000 -1.110872
v 0.738877 0.000000 -1.110872
vn 0.820795 -0.566499 -0.073310
vn 0.820795 0.566499 0.073310
vn 0.747484 -0.566499 0.346909
vn 0.674174 0.566499 0.473886
vn 0.473886 -0.566499 0.674174
vn 0.346909 0.566499 0.747484
vn 0.073310 -0.566499 0.820795
vn -0.073310 0.566499 0.820795
vn -0.346909 -0.566499 0.747484
vn -0.473886 0.566499 0.674174
vn -0.674174 -0.566499 0.473886
vn -0.747484 0.566499 0.346909
vn -0.820795 -0.566499 0.073310
vn -0.820795 0.566499 -0.073310
vn -0.747484 -0.566499 -0.346909
vn -0.674174 0.566499 -0.473886
vn -0.473886 -0.566499 -0.674174
vn -0.346909 0.566499 -0.747484
vn -0.073310 -0.566499 -0.820795
vn 0.073310 0.566499 -0.820795
vn 0.346909 -0.566499 -0.747484
vn 0.473886 0.566499 -0.674174
vn 0.674174 -0.566499 -0.473886
vn 0.747484 0.566499 -0.346909
vn 0.000000 1.000000 0.000000
vn 0.000000 -1.000000 0.000000
vt 0.928725 0.252475
vt 0.995049 0.500000
vt 0.995049 0.500000
vt 0.928725 0.252475
vt 0.500000 0.500000
vt 0.500000 0.500000
vt 0.747525 0.071275
vt 0.747525 0.071275
vt 0.500000 0.004950
vt 0.500000 0.004950
vt 0.252475 0.071275
vt 0.252475 0.071275
vt 0.071275 0.252475
vt 0.071275 0.252475
vt 0.004950 0.500000
vt 0.004950 0.500000
vt 0.071275 0.747525
vt 0.071275 0.747525
vt 0.252475 0.928725
vt 0.252475 0.928725
vt 0.500000 0.995049
vt 0.500000 0.995049
vt 0.747525 0.928725
vt 0.747525 0.928725
vt 0.928725 0.747525
vt 0.928725 0.747525
g Cylinder
usemtl Material2
f 92/90/92 90/91/90 91/92/91 
f 92/90/92 91/92/91 93/93/93 
f 93/93/93 91/92/91 114/94/114 
f 90/91/90 92/90/92 115/95/115 
f 94/96/94 92/90/92 93/93/93 
f 94/96/94 93/93/93 95/97/95 
f 95/97/95 93/93/93 114/94/114 
f 92/90/92 94/96/94 115/95/115 
f 96/98/96 94/96/94 95/97/95 
f 96/98/96 95/97/95 97/99/97 
f 97/99/97 95/97/95 114/94/114 
f 94/96/94 96/98/96 115/95/115 
f 98/100/98 96/98/96 97/99/97 
f 98/100/98 97/99/97 99/101/99 
f 99/101/99 97/99/97 114/94/114 
f 96/98/96 98/100/98 115/95/115 
f 100/102/100 98/100/98 99/101/99 
f 100/102/100 99/101/99 101/103/101 
f 101/103/101 99/101/99 114/94/114 
f 98/100/98 100/102/100 115/95/115 
f 102/104/102 100/102/100 101/103/101 
f 102/104/102 101/103/101 103/105/103 
f 103/105/103 101/103/101 114/94/114 
f 100/102/100 102/104/102 115/95/115 
f 104/106/104 102/104/102 103/105/103 
f 104/106/104 103/105/103 105/107/105 
f 105/107/105 103/105/103 114/94/114 
f 102/104/102 104/106/104 115/95/115 
f 106/108/106 104/106/104 105/107/105 
f 106/108/106 105/107/105 107/109/107 
f 107/109/107 105/107/105 114/94/114 
f 104/106/104 106/108/106 115/95/115 
f 108/110/108 106/108/106 107/109/107 
f 108/110/108 107/109/107 109/111/109 
f 109/111/109 107/109/107 114/94/114 
f 106/108/106 108/110/108 115/95/115 
f 110/112/110 108/110/108 109/111/109 
f 110/112/110 109/111/109 111/113/111 
f 111/113/111 109/111/109 114/94/114 
f 108/110/108 110/112/110 115/95/115 
f 112/114/112 110/112/110 111/113/111 
f 112/114/112 111/113/111 113/115/113 
f 113/115/113 111/113/111 114/94/114 
f 110/112/110 112/114/112 115/95/115 
f 90/91/90 112/114/112 113/115/113 
f 90/91/90 113/115/113 91/92/91 
f 91/92/91 113/115/113 114/94/114 
f 112/114/112 90/91/90 115/95/115 
v -0.821520 0.000000 0.502352
v -0.821520 1.000000 0.502352
v -0.855014 0.000000 0.627352
v -0.855014 1.000000 0.627352
v -0.946520 0.000000 0.718858
v -0.946520 1.000000 0.718858
v -1.071520 0.000000 0.752352
v -1.071520 1.000000 0.752352
v -1.196520 0.000000 0.718858
v -1.196520 1.000000 0.718858
v -1.288027 0.000000 0.627352
v -1.288027 1.000000 0.627352
v -1.321520 0.000000 0.502352
v -1.321520 1.000000 0.502352
v -1.288027 0.000000 0.377352
v -1.288027 1.000000 0.377352
v -1.196520 0.000000 0.285846
v -1.196520 1.000000 0.285846
v -1.071520 0.000000 0.252352
v -1.071520 1.000000 0.252352
v -0.946520 0.000000 0.285846
v -0.946520 1.000000 0.285846
v -0.855014 0.000000 0.377352
v -0.855014 1.000000 0.377352
v -1.071520 1.000000 0.502352
v -1.071520 0.000000 0.502352
vn 0.820795 -0.566499 -0.073310
vn 0.820795 0.566499 0.073310
vn 0.747484 -0.566499 0.346909
vn 0.674174 0.566499 0.473886
vn 0.473886 -0.566499 0.674174
vn 0.346909 0.566499 0.747484
vn 0.073310 -0.566499 0.820795
vn -0.073310 0.566499 0.820795
vn -0.346909 -0.566499 0.747484
vn -0.473886 0.566499 0.674174
vn -0.674174 -0.566499 0.473886
vn -0.747484 0.566499 0.346909
vn -0.820795 -0.566499 0.073310
vn -0.820795 0.566499 -0.073310
vn -0.747484 -0.566499 -0.346909
vn -0.674174 0.566499 -0.473886
vn -0.473886 -0.566499 -0.674174
vn -0.346909 0.566499 -0.747484
vn -0.073310 -0.566499 -0.820795
vn 0.073310 0.566499 -0.820795
vn 0.346909 -0.566499 -0.747484
vn 0.473886 0.566499 -0.674174
vn 0.674174 -0.566499 -0.473886
vn 0.747484 0.566499 -0.346909
vn 0.000000 1.000000 0.000000
vn 0.000000 -1.000000 0.000000
vt 0.928725 0.252475
vt 0.995049 0.500000
vt 0.995049 0.500000
vt 0.928725 0.252475
vt 0.500000 0.500000
vt 0.500000 0.500000
vt 0.747525 0.071275
vt 0.747525 0.071275
vt 0.500000 0.004950
vt 0.500000 0.004950
vt 0.252475 0.071275
vt 0.252475 0.071275
vt 0.071275 0.252475
vt 0.071275 0.252475
vt 0.004950 0.500000
vt 0.004950 0.500000
vt 0.071275 0.747525
vt 0.071275 0.747525
vt 0.252475 0.928725
vt 0.252475 0.928725
vt 0.500000 0.995049
vt 0.500000 0.995049
vt 0.747525 0.928725
vt 0.747525 0.928725
vt 0.928725 0.747525
vt 0.928725 0.747525
g Cylinder
usemtl Material2
f 118/116/118 116/117/116 117/118/117 
f 118/116/118 117/118/117 119/119/119 
f 119/119/119 117/118/117 140/120/140 
f 116/117/116 118/116/118 141/121/141 
f 120/122/120 118/116/118 119/119/119 
f 120/122/120 119/119/119 121/123/121 
f 121/123/121 119/119/119 140/120/140 
f 118/116/118 120/122/120 141/121/141 
f 122/124/122 120/122/120 121/123/121 
f 122/124/122 121/123/121 123/125/123 
f 123/125/123 121/123/121 140/120/140 
f 120/122/120 122/124/122 141/121/141 
f 124/126/124 122/124/122 123/125/123 
f 124/126/124 123/125/123 125/127/125 
f 125/127/125 123/125/123 140/120/140 
f 122/124/122 124/126/124 141/121/141 
f 126/128/126 124/126/124 125/127/125 
f 126/128/126 125/127/125 127/129/127 
f 127/129/127 125/127/125 140/120/140 
f 124/126/124 126/128/126 141/121/141 
f 128/130/128 126/128/126 127/129/127 
f 128/130/128 127/129/127 129/131/129 
f 129/131/129 127/129/127 140/120/140 
f 126/128/126 128/130/128 141/121/141 
f 130/132/130 128/130/128 129/131/129 
f 130/132/130 129/131/129 131/133/131 
f 131/133/131 129/131/129 140/120/140 
f 128/130/128 130/132/130 141/121/141 
f 132/134/132 130/132/130 131/133/131 
f 132/134/132 131/133/131 133/135/133 
f 133/135/133 131/133/131 140/120/140 
f 130/132/130 132/134/132 141/121/141 
f 134/136/134 132/134/132 133/135/133 
f 134/136/134 133/135/133 135/137/135 
f 135/137/135 133/135/133 140/120/140 
f 132/134/132 134/136/134 141/121/141 
f 136/138/136 134/136/134 135/137/135 
f 136/138/136 135/137/135 137/139/137 
f 137/139/137 135/137/135 140/120/140 
f 134/136/134 136/138/136 141/121/141 
f 138/140/138 136/138/136 137/139/137 
f 138/140/138 137/139/137 139/141/139 
f 139/141/139 137/139/137 140/120/140 
f 136/138/136 138/140/138 141/121/141 
f 116/117/116 138/140/138 139/141/139 
f 116/117/116 139/141/139 117/118/117 
f 117/118/117 139/141/139 140/120/140 
f 138/140/138 116/117/116 141/121/141 
v -0.303975 0.000000 -0.519523
v -0.303975 1.000000 -0.519523
v -0.337468 0.000000 -0.394523
v -0.337468 1.000000 -0.394523
v -0.428975 0.000000 -0.303016
v -0.428975 1.000000 -0.303016
v -0.553975 0.000000 -0.269523
v -0.553975 1.000000 -0.269523
v -0.678975 0.000000 -0.303016
v -0.678975 1.000000 -0.303016
v -0.770481 0.000000 -0.394523
v -0.770481 1.000000 -0.394523
v -0.803975 0.000000 -0.519523
v -0.803975 1.000000 -0.519523
v -0.770481 0.000000 -0.644523
v -0.770481 1.000000 -0.644523
v -0.678975 0.000000 -0.736029
v -0.678975 1.000000 -0.736029
v -0.553975 0.000000 -0.769523
v -0.553975 1.000000 -0.769523
v -0.428975 0.000000 -0.736029
v -0.428975 1.000000 -0.736029
v -0.337468 0.000000 -0.644523
v -0.337468 1.000000 -0.644523
v -0.553975 1.000000 -0.519523
v -0.553975 0.000000 -0.519523
vn 0.820795 -0.566499 -0.073310
vn 0.820795 0.566499 0.073310
vn 0.747484 -0.566499 0.346909
vn 0.674174 0.566499 0.473886
vn 0.473886 -0.566499 0.674174
vn 0.346909 0.566499 0.747484
vn 0.073310 -0.566499 0.820795
vn -0.073310 0.566499 0.820795
vn -0.346909 -0.566499 0.747484
vn -0.473886 0.566499 0.674174
vn -0.674174 -0.566499 0.473886
vn -0.747484 0.566499 0.346909
vn -0.820795 -0.566499 0.073310
vn -0.820795 0.566499 -0.073310
vn -0.747484 -0.566499 -0.346909
vn -0.674174 0.566499 -0.473886
vn -0.473886 -0.566499 -0.674174
vn -0.346909 0.566499 -0.747484
vn -0.073310 -0.566499 -0.820795
vn 0.073310 0.566499 -0.820795
vn 0.346909 -0.566499 -0.747484
vn 0.473886 0.566499 -0.674174
vn 0.674174 -0.566499 -0.473886
vn 0.747484 0.566499 -0.346909
vn 0.000000 1.000000 0.000000
vn 0.000000 -1.000000 0.000000
vt 0.928725 0.252475
vt 0.995049 0.500000
vt 0.995049 0.500000
vt 0.928725 0.252475
vt 0.500000 0.500000
vt 0.500000 0.500000
vt 0.747525 0.071275
vt 0.747525 0.071275
vt 0.500000 0.004950
vt 0.500000 0.004950
vt 0.252475 0.071275
vt 0.252475 0.071275
vt 0.071275 0.252475
vt 0.071275 0.252475
vt 0.004950 0.500000
vt 0.004950 0.500000
vt 0.071275 0.747525
vt 0.071275 0.747525
vt 0.252475 0.928725
vt 0.252475 0.928725
vt 0.500000 0.995049
vt 0.500000 0.995049
vt 0.747525 0.928725
vt 0.747525 0.928725
vt 0.928725 0.747525
vt 0.928725 0.747525
g Cylinder
usemtl Material2
f 144/142/144 142/143/142 143/144/143 
f 144/142/144 143/144/143 145/145/145 
f 145/145/145 143/144/143 166/146/166 
f 142/143/142 144/142/144 167/147/167 
f 146/148/146 144/142/144 145/145/145 
f 146/148/146 145/145/145 147/149/147 
f 147/149/147 145/145/145 166/146/166 
f 144/142/144 146/148/146 167/147/167 
f 148/150/148 146/148/146 147/149/147 
f 148/150/148 147/149/147 149/151/149 
f 149/151/149 147/149/147 166/146/166 
f 146/148/146 148/150/148 167/147/167 
f 150/152/150 148/150/148 149/151/149 
f 150/152/150 149/151/149 151/153/151 
f 151/153/151 149/151/149 166/146/166 
f 148/150/148 150/152/150 167/147/167 
f 152/154/152 150/152/150 151/153/151 
f 152/154/152 151/153/151 153/155/153 
f 153/155/153 151/153/151 166/146/166 
f 150/152/150 152/154/152 167/147/167 
f 154/156/154 152/154/152 153/155/153 
f 154/156/154 153/155/153 155/157/155 
f 155/157/155 153/155/153 166/146/166 
f 152/154/152 154/156/154 167/147/167 
f 156/158/156 154/156/154 155/157/155 
f 156/158/156 155/157/155 157/159/157 
f 157/159/157 155/157/155 166/146/166 
f 154/156/154 156/158/156 167/147/167 
f 158/160/158 156/158/156 157/159/157 
f 158/160/158 157/159/157 159/161/159 
f 159/161/159 157/159/157 166/146/166 
f 156/158/156 158/160/158 167/147/167 
f 160/162/160 158/160/158 159/161/159 
f 160/162/160 159/161/159 161/163/161 
f 161/163/161 159/161/159 166/146/166 
f 158/160/158 160/162/160 167/147/167 
f 162/164/162 160/162/160 161/163/161 
f 162/164/162 161/163/161 163/165/163 
f 163/165/163 161/163/161 166/146/166 
f 160/162/160 162/164/162 167/147/167 
f 164/166/164 162/164/162 163/165/163 
f 164/166/164 163/165/163 165/167/165 
f 165/167/165 163/165/163 166/146/166 
f 162/164/162 164/166/164 167/147/167 
f 142/143/142 164/166/164 165/167/165 
f 142/143/142 165/167/165 143/144/143 
f 143/144/143 165/167/165 166/146/166 
f 164/166/164 142/143/142 167/147/167 
