mtllib eee-test.mtl
o eee-test.obj
v -4.521314 0.000000 1.889633
v 3.932982 0.000000 3.510615
v 1.109646 0.000000 -4.621510
vn 0.000000 1.000000 0.000000
vn 0.000000 1.000000 0.000000
vn 0.000000 1.000000 0.000000
vt 0.000000 0.000000
vt 0.000000 0.000000
vt 0.000000 0.000000
g Line Segment
usemtl Material1
f 2/1/2 3/2/3 1/3/1 
v 0.687254 1.000000 0.790184
v -0.373663 1.000000 1.084312
v -0.303359 1.000000 2.210989
vn 0.000000 1.000000 0.000000
vn 0.000000 1.000000 0.000000
vn 0.000000 1.000000 0.000000
vt 0.000000 0.000000
vt 0.000000 0.000000
vt 0.000000 0.000000
g Line Segment
usemtl Material2
f 5/4/5 6/5/6 4/6/4 
v -0.032358 1.163899 0.279929
v -1.093275 1.163899 0.574057
v -1.022971 1.163899 1.700734
vn 0.000000 1.000000 0.000000
vn 0.000000 1.000000 0.000000
vn 0.000000 1.000000 0.000000
vt 0.000000 0.000000
vt 0.000000 0.000000
vt 0.000000 0.000000
g Line Segment
usemtl Material2
f 8/7/8 9/8/9 7/9/7 
v 1.740642 1.000000 -1.261674
v 0.679725 1.000000 -0.967546
v 0.750029 1.000000 0.159131
vn 0.000000 1.000000 0.000000
vn 0.000000 1.000000 0.000000
vn 0.000000 1.000000 0.000000
vt 0.000000 0.000000
vt 0.000000 0.000000
vt 0.000000 0.000000
g Line Segment
usemtl Material2
f 11/10/11 12/11/12 10/12/10 
v 1.268947 1.163899 -1.579493
v 0.208030 1.163899 -1.285365
v 0.278334 1.163899 -0.158688
vn 0.000000 1.000000 0.000000
vn 0.000000 1.000000 0.000000
vn 0.000000 1.000000 0.000000
vt 0.000000 0.000000
vt 0.000000 0.000000
vt 0.000000 0.000000
g Line Segment
usemtl Material2
f 14/13/14 15/14/15 13/15/13 
v 0.072029 3.540584 -0.000000
v 0.050932 3.540584 0.050932
v 0.000000 3.540584 0.072028
v -0.050932 3.540584 0.050932
v -0.072028 3.540584 -0.000000
v -0.050932 3.540584 -0.050932
v 0.000000 3.540584 -0.072028
v 0.050932 3.540584 -0.050932
vn 0.000000 -1.000000 0.000000
vn 0.000000 -1.000000 0.000000
vn 0.000000 -1.000000 0.000000
vn 0.000000 -1.000000 0.000000
vn 0.000000 -1.000000 0.000000
vn 0.000000 -1.000000 0.000000
vn 0.000000 -1.000000 0.000000
vn 0.000000 -1.000000 0.000000
vt 0.995049 0.500000
vt 0.850053 0.850053
vt 0.500000 0.995049
vt 0.149947 0.850053
vt 0.004951 0.500000
vt 0.149947 0.149947
vt 0.500000 0.004951
vt 0.850053 0.149947
g Polygon
usemtl LightSource
f 16/16/16 17/17/17 18/18/18 
f 16/16/16 18/18/18 19/19/19 
f 16/16/16 19/19/19 20/20/20 
f 16/16/16 20/20/20 21/21/21 
f 16/16/16 21/21/21 22/22/22 
f 16/16/16 22/22/22 23/23/23 
