mtllib four-lights.mtl
o four-lights.obj
v -4.521314 0.000000 1.889633
v 3.932982 0.000000 3.510615
v 1.109646 0.000000 -4.621510
vn 0.000000 1.000000 0.000000
vn 0.000000 1.000000 0.000000
vn 0.000000 1.000000 0.000000
vt 0.000000 0.000000
vt 0.000000 0.000000
vt 0.000000 0.000000
g Line Segment
usemtl Material1
f 2/1/2 3/2/3 1/3/1 
v 0.396819 1.500815 0.074398
v -0.264392 1.500815 0.017887
v 0.017273 1.500815 0.618768
vn 0.000000 1.000000 0.000000
vn 0.000000 1.000000 0.000000
vn 0.000000 1.000000 0.000000
vt 0.000000 0.000000
vt 0.000000 0.000000
vt 0.000000 0.000000
g Line Segment
usemtl Material2
f 5/4/5 6/5/6 4/6/4 
v -2.039194 4.259937 0.621006
v -1.954127 4.232782 0.405425
v -1.748755 4.167226 0.316128
v -1.543383 4.101670 0.405425
v -1.458315 4.074515 0.621006
v -1.543383 4.101670 0.836588
v -1.748755 4.167226 0.925884
v -1.954127 4.232782 0.836588
vn -0.304090 -0.952643 -0.000000
vn -0.304087 -0.952644 0.000006
vn -0.304089 -0.952644 0.000004
vn -0.304092 -0.952643 0.000000
vn -0.304092 -0.952643 0.000000
vn -0.304092 -0.952643 -0.000000
vn -0.304089 -0.952644 -0.000004
vn -0.304087 -0.952644 -0.000006
vt 0.995049 0.500000
vt 0.850053 0.850053
vt 0.500000 0.995049
vt 0.149947 0.850053
vt 0.004951 0.500000
vt 0.149947 0.149947
vt 0.500000 0.004951
vt 0.850053 0.149947
g Polygon
usemtl LightSource
f 7/7/7 8/8/8 9/9/9 
f 7/7/7 9/9/9 10/10/10 
f 7/7/7 10/10/10 11/11/11 
f 7/7/7 11/11/11 12/12/12 
f 7/7/7 12/12/12 13/13/13 
f 7/7/7 13/13/13 14/14/14 
v -1.053573 4.349733 -1.536050
v -0.968506 4.322577 -1.751631
v -0.763134 4.257022 -1.840928
v -0.557762 4.191466 -1.751631
v -0.472694 4.164310 -1.536050
v -0.557762 4.191466 -1.320468
v -0.763134 4.257022 -1.231172
v -0.968506 4.322577 -1.320468
vn -0.304089 -0.952644 0.000000
vn -0.304084 -0.952645 0.000009
vn -0.304088 -0.952644 0.000006
vn -0.304092 -0.952643 -0.000001
vn -0.304093 -0.952642 -0.000000
vn -0.304092 -0.952643 0.000001
vn -0.304088 -0.952644 -0.000006
vn -0.304084 -0.952645 -0.000009
vt 0.995049 0.500000
vt 0.850053 0.850053
vt 0.500000 0.995049
vt 0.149947 0.850053
vt 0.004951 0.500000
vt 0.149947 0.149947
vt 0.500000 0.004951
vt 0.850053 0.149947
g Polygon
usemtl LightSource
f 15/15/15 16/16/16 17/17/17 
f 15/15/15 17/17/17 18/18/18 
f 15/15/15 18/18/18 19/19/19 
f 15/15/15 19/19/19 20/20/20 
f 15/15/15 20/20/20 21/21/21 
f 15/15/15 21/21/21 22/22/22 
v 1.252134 3.603133 -0.662142
v 1.337201 3.575978 -0.877723
v 1.542573 3.510422 -0.967020
v 1.747945 3.444866 -0.877723
v 1.833013 3.417711 -0.662142
v 1.747945 3.444866 -0.446560
v 1.542573 3.510422 -0.357264
v 1.337201 3.575978 -0.446560
vn -0.304090 -0.952643 -0.000000
vn -0.304086 -0.952645 0.000007
vn -0.304088 -0.952644 0.000005
vn -0.304092 -0.952643 -0.000000
vn -0.304093 -0.952642 0.000000
vn -0.304092 -0.952643 0.000000
vn -0.304088 -0.952644 -0.000005
vn -0.304086 -0.952645 -0.000007
vt 0.995049 0.500000
vt 0.850053 0.850053
vt 0.500000 0.995049
vt 0.149947 0.850053
vt 0.004951 0.500000
vt 0.149947 0.149947
vt 0.500000 0.004951
vt 0.850053 0.149947
g Polygon
usemtl LightSource
f 23/23/23 24/24/24 25/25/25 
f 23/23/23 25/25/25 26/26/26 
f 23/23/23 26/26/26 27/27/27 
f 23/23/23 27/27/27 28/28/28 
f 23/23/23 28/28/28 29/29/29 
f 23/23/23 29/29/29 30/30/30 
v 0.898718 5.813478 2.065734
v 0.983785 5.786323 1.850153
v 1.189157 5.720767 1.760856
v 1.394529 5.655211 1.850153
v 1.479597 5.628056 2.065734
v 1.394529 5.655211 2.281316
v 1.189157 5.720767 2.370612
v 0.983785 5.786323 2.281316
vn -0.304089 -0.952644 -0.000000
vn -0.304084 -0.952645 0.000009
vn -0.304087 -0.952644 0.000006
vn -0.304092 -0.952643 -0.000001
vn -0.304093 -0.952642 -0.000000
vn -0.304092 -0.952643 0.000001
vn -0.304087 -0.952644 -0.000006
vn -0.304084 -0.952645 -0.000009
vt 0.995049 0.500000
vt 0.850053 0.850053
vt 0.500000 0.995049
vt 0.149947 0.850053
vt 0.004951 0.500000
vt 0.149947 0.149947
vt 0.500000 0.004951
vt 0.850053 0.149947
g Polygon
usemtl LightSource
f 31/31/31 32/32/32 33/33/33 
f 31/31/31 33/33/33 34/34/34 
f 31/31/31 34/34/34 35/35/35 
f 31/31/31 35/35/35 36/36/36 
f 31/31/31 36/36/36 37/37/37 
f 31/31/31 37/37/37 38/38/38 
