mtllib four-boxes.mtl
o four-boxes.obj
v -4.521314 0.000000 1.889633
v 3.932982 0.000000 3.510615
v 1.109646 0.000000 -4.621510
vn 0.000000 1.000000 0.000000
vn 0.000000 1.000000 0.000000
vn 0.000000 1.000000 0.000000
vt 0.000000 0.000000
vt 0.000000 0.000000
vt 0.000000 0.000000
g Line Segment
usemtl Material1
f 2/1/2 3/2/3 1/3/1 
v 2.514194 6.491466 3.955377
v 2.474159 6.433049 4.044145
v 2.377506 6.433774 4.103749
v 2.280853 6.493214 4.099273
v 2.240818 6.576550 4.033340
v 2.280853 6.634966 3.944572
v 2.377506 6.634242 3.884969
v 2.474159 6.574801 3.889444
vn -0.388908 -0.679248 -0.622393
vn -0.388913 -0.679239 -0.622399
vn -0.388909 -0.679243 -0.622397
vn -0.388905 -0.679249 -0.622394
vn -0.388903 -0.679250 -0.622393
vn -0.388902 -0.679248 -0.622397
vn -0.388912 -0.679251 -0.622388
vn -0.388922 -0.679255 -0.622377
vt 0.995049 0.500000
vt 0.850053 0.850053
vt 0.500000 0.995049
vt 0.149947 0.850053
vt 0.004951 0.500000
vt 0.149947 0.149947
vt 0.500000 0.004951
vt 0.850053 0.149947
g Polygon
usemtl LightSource
f 4/4/4 5/5/5 6/6/6 
f 4/4/4 6/6/6 7/7/7 
f 4/4/4 7/7/7 8/8/8 
f 4/4/4 8/8/8 9/9/9 
f 4/4/4 9/9/9 10/10/10 
f 4/4/4 10/10/10 11/11/11 
v -0.511984 0.000000 0.245116
v 0.488016 0.000000 0.245116
v -0.511984 1.000000 0.245116
v 0.488016 1.000000 0.245116
v -0.511984 0.000000 1.245116
v 0.488016 0.000000 1.245116
v -0.511984 1.000000 1.245116
v 0.488016 1.000000 1.245116
vn -0.333333 -0.666667 -0.666667
vn 0.816497 -0.408248 -0.408248
vn -0.816497 0.408248 -0.408248
vn 0.333333 0.666667 -0.666667
vn -0.816497 -0.408248 0.408248
vn 0.333333 -0.666667 0.666667
vn -0.333333 0.666667 0.666667
vn 0.816497 0.408248 0.408248
vt 0.995049 0.995049
vt 0.995049 0.995049
vt 0.004950 0.995049
vt 0.004950 0.995049
vt 0.995049 0.004950
vt 0.995049 0.004950
vt 0.004950 0.004950
vt 0.004950 0.004950
g Cube
usemtl Material2
f 15/12/15 13/13/13 12/14/12 
f 15/12/15 12/14/12 14/15/14 
f 17/16/17 19/17/19 18/18/18 
f 17/16/17 18/18/18 16/19/16 
f 17/16/17 16/19/16 12/14/12 
f 17/16/17 12/14/12 13/13/13 
f 19/17/19 17/16/17 13/13/13 
f 19/17/19 13/13/13 15/12/15 
f 18/18/18 19/17/19 15/12/15 
f 18/18/18 15/12/15 14/15/14 
f 16/19/16 18/18/18 14/15/14 
f 16/19/16 14/15/14 12/14/12 
v -0.036136 1.000000 0.392388
v 0.340744 1.000000 0.720963
v -0.036136 2.000000 0.392388
v 0.340744 2.000000 0.720963
v -0.364711 1.000000 0.769268
v 0.012169 1.000000 1.097843
v -0.364711 2.000000 0.769268
v 0.012169 2.000000 1.097843
vn 0.186847 -0.666667 -0.721557
vn 0.883723 -0.408248 0.228839
vn -0.347162 0.408248 -0.844282
vn 0.689353 0.666667 -0.283457
vn -0.883723 -0.408248 -0.228840
vn -0.186847 -0.666667 0.721557
vn -0.689353 0.666667 0.283457
vn 0.347162 0.408248 0.844282
vt 0.995049 0.995049
vt 0.995049 0.995049
vt 0.004950 0.995049
vt 0.004950 0.995049
vt 0.995049 0.004950
vt 0.995049 0.004950
vt 0.004950 0.004950
vt 0.004950 0.004950
g Cube
usemtl Material2
f 23/20/23 21/21/21 20/22/20 
f 23/20/23 20/22/20 22/23/22 
f 25/24/25 27/25/27 26/26/26 
f 25/24/25 26/26/26 24/27/24 
f 25/24/25 24/27/24 20/22/20 
f 25/24/25 20/22/20 21/21/21 
f 27/25/27 25/24/25 21/21/21 
f 27/25/27 21/21/21 23/20/23 
f 26/26/26 27/25/27 23/20/23 
f 26/26/26 23/20/23 22/23/22 
f 24/27/24 26/26/26 22/23/22 
f 24/27/24 22/23/22 20/22/20 
v 0.799580 1.000000 1.235942
v 1.299580 1.000000 1.235942
v 0.799580 2.000000 1.235942
v 1.299580 2.000000 1.235942
v 0.799580 1.000000 1.735942
v 1.299580 1.000000 1.735942
v 0.799580 2.000000 1.735942
v 1.299580 2.000000 1.735942
vn -0.333333 -0.666667 -0.666667
vn 0.816497 -0.408248 -0.408248
vn -0.816497 0.408248 -0.408248
vn 0.333333 0.666667 -0.666667
vn -0.816497 -0.408248 0.408248
vn 0.333333 -0.666667 0.666667
vn -0.333333 0.666667 0.666667
vn 0.816497 0.408248 0.408248
vt 0.995049 0.995049
vt 0.995049 0.995049
vt 0.004950 0.995049
vt 0.004950 0.995049
vt 0.995049 0.004950
vt 0.995049 0.004950
vt 0.004950 0.004950
vt 0.004950 0.004950
g Cube
usemtl Material2
f 31/28/31 29/29/29 28/30/28 
f 31/28/31 28/30/28 30/31/30 
f 33/32/33 35/33/35 34/34/34 
f 33/32/33 34/34/34 32/35/32 
f 33/32/33 32/35/32 28/30/28 
f 33/32/33 28/30/28 29/29/29 
f 35/33/35 33/32/33 29/29/29 
f 35/33/35 29/29/29 31/28/31 
f 34/34/34 35/33/35 31/28/31 
f 34/34/34 31/28/31 30/31/30 
f 32/35/32 34/34/34 30/31/30 
f 32/35/32 30/31/30 28/30/28 
v 0.524614 0.000000 0.763605
v 1.419978 0.000000 0.318270
v 0.524614 1.000000 0.763605
v 1.419978 1.000000 0.318270
v 0.969949 0.000000 1.658969
v 1.865313 0.000000 1.213634
v 0.969949 1.000000 1.658969
v 1.865313 1.000000 1.213634
vn -0.595345 -0.666667 -0.448464
vn 0.549254 -0.408248 -0.729145
vn -0.912869 0.408248 -0.001916
vn 0.001565 0.666667 -0.745354
vn -0.549254 -0.408248 0.729145
vn 0.595345 -0.666667 0.448464
vn -0.001565 0.666667 0.745354
vn 0.912869 0.408248 0.001916
vt 0.995049 0.995049
vt 0.995049 0.995049
vt 0.004950 0.995049
vt 0.004950 0.995049
vt 0.995049 0.004950
vt 0.995049 0.004950
vt 0.004950 0.004950
vt 0.004950 0.004950
g Cube
usemtl Material2
f 39/36/39 37/37/37 36/38/36 
f 39/36/39 36/38/36 38/39/38 
f 41/40/41 43/41/43 42/42/42 
f 41/40/41 42/42/42 40/43/40 
f 41/40/41 40/43/40 36/38/36 
f 41/40/41 36/38/36 37/37/37 
f 43/41/43 41/40/41 37/37/37 
f 43/41/43 37/37/37 39/36/39 
f 42/42/42 43/41/43 39/36/39 
f 42/42/42 39/36/39 38/39/38 
f 40/43/40 42/42/42 38/39/38 
f 40/43/40 38/39/38 36/38/36 
