mtllib light-split.mtl
o light-split.obj
v -4.521314 0.000000 1.889633
v 3.932982 0.000000 3.510615
v 1.109646 0.000000 -4.621510
vn 0.000000 1.000000 0.000000
vn 0.000000 1.000000 0.000000
vn 0.000000 1.000000 0.000000
vt 0.000000 0.000000
vt 0.000000 0.000000
vt 0.000000 0.000000
g Line Segment
usemtl Material1
f 2/1/2 3/2/3 1/3/1 
v 0.250634 0.622615 -0.048376
v 0.246438 0.076305 0.634653
v -0.508918 0.351730 0.290301
vn -0.000000 -0.780932 -0.624616
vn -0.000000 -0.780932 -0.624616
vn -0.000000 -0.780932 -0.624616
vt 0.000000 0.000000
vt 0.000000 0.000000
vt 0.000000 0.000000
g Line Segment
usemtl LightSource
f 5/4/5 6/5/6 4/6/4 
