mtllib triangles.mtl
o triangles.obj
g Polygon
v -4.521314 0.000000 1.889633
v 3.932982 0.000000 3.510615
v 1.109646 0.000000 -4.621510
vn 0.000000 1.000000 0.000000
vn 0.000000 1.000000 0.000000
vn 0.000000 1.000000 0.000000
vt 0.000000 0.000000
vt 0.000000 0.000000
vt 0.000000 0.000000
g Line Segment
usemtl Material1
f 2/1/2 3/2/3 1/3/1 
v 0.929093 1.000000 -0.318328
v -0.796666 1.000000 -0.465822
v -0.061520 1.000000 1.102477
vn 0.000000 1.000000 0.000000
vn 0.000000 1.000000 0.000000
vn 0.000000 1.000000 0.000000
vt 0.000000 0.000000
vt 0.000000 0.000000
vt 0.000000 0.000000
g Line Segment
usemtl Material1
f 5/4/5 6/5/6 4/6/4 
v 0.046954 3.553874 0.020612
v 0.161541 3.553874 0.435954
v -0.255449 3.553874 0.327518
vn 0.000000 -1.000000 0.000000
vn 0.000000 -1.000000 0.000000
vn 0.000000 -1.000000 0.000000
vt 0.000000 0.000000
vt 0.000000 0.000000
vt 0.000000 0.000000
g Line Segment
usemtl LightSource
f 8/7/8 9/8/9 7/9/7 
