mtllib two-slabs.mtl
o two-slabs.obj
v -5.000000 0.000000 -5.000000
v 5.000000 0.000000 -5.000000
v -5.000000 0.000000 5.000000
v 5.000000 0.000000 5.000000
vn 0.000000 1.000000 0.000000
vn 0.000000 1.000000 0.000000
vn 0.000000 1.000000 0.000000
vn 0.000000 1.000000 0.000000
vt 0.004951 0.004951
vt 0.995049 0.004951
vt 0.995049 0.995049
vt 0.004951 0.995049
g Grid
usemtl Material1
f 3/1/3 4/2/4 2/3/2 
f 3/1/3 2/3/2 1/4/1 
v -3.000000 0.000000 -0.050000
v 3.000000 0.000000 -0.050000
v -3.000000 2.000000 -0.050000
v 3.000000 2.000000 -0.050000
v -3.000000 0.000000 0.050000
v 3.000000 0.000000 0.050000
v -3.000000 2.000000 0.050000
v 3.000000 2.000000 0.050000
vn -0.333333 -0.666667 -0.666667
vn 0.816497 -0.408248 -0.408248
vn -0.816497 0.408248 -0.408248
vn 0.333333 0.666667 -0.666667
vn -0.816497 -0.408248 0.408248
vn 0.333333 -0.666667 0.666667
vn -0.333333 0.666667 0.666667
vn 0.816497 0.408248 0.408248
vt 0.995049 0.508251
vt 0.995049 0.508251
vt 0.004950 0.508251
vt 0.004950 0.508251
vt 0.995049 0.491749
vt 0.995049 0.491749
vt 0.004950 0.491749
vt 0.004950 0.491749
g Cube
usemtl Material2
f 8/5/8 6/6/6 5/7/5 
f 8/5/8 5/7/5 7/8/7 
f 10/9/10 12/10/12 11/11/11 
f 10/9/10 11/11/11 9/12/9 
f 10/9/10 9/12/9 5/7/5 
f 10/9/10 5/7/5 6/6/6 
f 12/10/12 10/9/10 6/6/6 
f 12/10/12 6/6/6 8/5/8 
f 11/11/11 12/10/12 8/5/8 
f 11/11/11 8/5/8 7/8/7 
f 9/12/9 11/11/11 7/8/7 
f 9/12/9 7/8/7 5/7/5 
v -1.000000 0.000000 0.569914
v 1.000000 0.000000 0.569914
v -1.000000 4.000000 0.569914
v 1.000000 4.000000 0.569914
v -1.000000 0.000000 0.669914
v 1.000000 0.000000 0.669914
v -1.000000 4.000000 0.669914
v 1.000000 4.000000 0.669914
vn -0.333333 -0.666667 -0.666667
vn 0.816497 -0.408248 -0.408248
vn -0.816497 0.408248 -0.408248
vn 0.333333 0.666667 -0.666667
vn -0.816497 -0.408248 0.408248
vn 0.333333 -0.666667 0.666667
vn -0.333333 0.666667 0.666667
vn 0.816497 0.408248 0.408248
vt 0.995049 0.524752
vt 0.995049 0.524752
vt 0.004950 0.524752
vt 0.004950 0.524752
vt 0.995049 0.475248
vt 0.995049 0.475248
vt 0.004950 0.475248
vt 0.004950 0.475248
g Cube
usemtl Material2
f 16/13/16 14/14/14 13/15/13 
f 16/13/16 13/15/13 15/16/15 
f 18/17/18 20/18/20 19/19/19 
f 18/17/18 19/19/19 17/20/17 
f 18/17/18 17/20/17 13/15/13 
f 18/17/18 13/15/13 14/14/14 
f 20/18/20 18/17/18 14/14/14 
f 20/18/20 14/14/14 16/13/16 
f 19/19/19 20/18/20 16/13/16 
f 19/19/19 16/13/16 15/16/15 
f 17/20/17 19/19/19 15/16/15 
f 17/20/17 15/16/15 13/15/13 
