mtllib wall.mtl
o wall.obj
v -4.521314 0.000000 1.889633
v 3.932982 0.000000 3.510615
v 1.109646 0.000000 -4.621510
vn 0.000000 1.000000 0.000000
vn 0.000000 1.000000 0.000000
vn 0.000000 1.000000 0.000000
vt 0.000000 0.000000
vt 0.000000 0.000000
vt 0.000000 0.000000
g Line Segment
usemtl Material1
f 2/1/2 3/2/3 1/3/1 
v -2.535102 3.836557 0.244846
v -2.517329 3.853761 0.185128
v -2.474422 3.895296 0.160392
v -2.431515 3.936831 0.185128
v -2.413742 3.954036 0.244846
v -2.431515 3.936831 0.304564
v -2.474422 3.895296 0.329300
v -2.517329 3.853761 0.304564
vn 0.695522 -0.718504 0.000000
vn 0.695523 -0.718504 0.000005
vn 0.695523 -0.718504 0.000005
vn 0.695522 -0.718504 0.000002
vn 0.695521 -0.718505 0.000000
vn 0.695522 -0.718504 -0.000002
vn 0.695523 -0.718504 -0.000005
vn 0.695523 -0.718504 -0.000005
vt 0.995049 0.500000
vt 0.850053 0.850053
vt 0.500000 0.995049
vt 0.149947 0.850053
vt 0.004951 0.500000
vt 0.149947 0.149947
vt 0.500000 0.004951
vt 0.850053 0.149947
g Polygon
usemtl LightSource
f 4/4/4 5/5/5 6/6/6 
f 4/4/4 6/6/6 7/7/7 
f 4/4/4 7/7/7 8/8/8 
f 4/4/4 8/8/8 9/9/9 
f 4/4/4 9/9/9 10/10/10 
f 4/4/4 10/10/10 11/11/11 
v -0.061539 0.000000 -2.020317
v 0.061539 0.000000 -2.020317
v -0.061539 1.000000 -2.020317
v 0.061539 1.000000 -2.020317
v -0.061539 0.000000 2.020317
v 0.061539 0.000000 2.020317
v -0.061539 1.000000 2.020317
v 0.061539 1.000000 2.020317
v -0.060539 0.002000 1.456735
v -0.060539 0.002000 0.943265
v -0.060539 0.002000 0.856735
v -0.060539 0.002000 0.343265
v -0.060539 0.002000 0.256735
v -0.060539 0.002000 -0.256735
v -0.060539 0.002000 -0.343265
v -0.060539 0.002000 -0.856735
v -0.060539 0.002000 -0.943265
v -0.060539 0.002000 -1.456735
v 0.062539 0.002000 -1.456735
v 0.062539 0.002000 -0.943265
v 0.062539 0.002000 -0.856735
v 0.062539 0.002000 -0.343265
v 0.062539 0.002000 -0.256735
v 0.062539 0.002000 0.256735
v 0.062539 0.002000 0.343265
v 0.062539 0.002000 0.856735
v 0.062539 0.002000 0.943265
v 0.062539 0.002000 1.456735
v 0.062539 0.851749 1.456735
v 0.062539 0.851749 0.943265
v -0.060539 0.851749 -0.943265
v 0.062539 0.851749 0.856735
v 0.062539 0.851749 0.343265
v -0.060539 0.851749 -0.856735
v -0.060539 0.851749 -0.343265
v 0.062539 0.851749 0.256735
v 0.062539 0.851749 -0.256735
v -0.060539 0.851749 -0.256735
v -0.060539 0.851749 0.256735
v 0.062539 0.851749 -0.343265
v 0.062539 0.851749 -0.856735
v -0.060539 0.851749 0.343265
v -0.060539 0.851749 0.856735
v 0.062539 0.851749 -0.943265
v 0.062539 0.851749 -1.456735
v -0.060539 0.851749 0.943265
v -0.060539 0.851749 1.456735
v -0.060539 0.851749 -1.456735
vn -0.408974 -0.408972 -0.815771
vn 0.408611 -0.817219 -0.406437
vn -0.905378 0.299760 -0.300724
vn 0.972405 0.167537 -0.162358
vn -0.578375 -0.578373 0.575297
vn 0.333728 -0.667453 0.665681
vn -0.974223 0.156898 0.162086
vn 0.903685 0.303263 0.302300
vn -0.665877 -0.665873 -0.336483
vn -0.333333 -0.666667 0.666667
vn -0.816497 -0.408248 -0.408248
vn -0.333333 -0.666667 0.666667
vn -0.816497 -0.408248 -0.408248
vn -0.333333 -0.666667 0.666667
vn -0.816497 -0.408248 -0.408248
vn -0.333333 -0.666667 0.666667
vn -0.816496 -0.408248 -0.408248
vn -0.576326 -0.576324 0.579395
vn 0.816497 -0.408247 0.408249
vn 0.333334 -0.666667 -0.666667
vn 0.816497 -0.408248 0.408248
vn 0.333333 -0.666667 -0.666667
vn 0.816497 -0.408248 0.408248
vn 0.333333 -0.666667 -0.666667
vn 0.816497 -0.408248 0.408248
vn 0.333333 -0.666667 -0.666667
vn 0.816497 -0.408248 0.408248
vn 0.666666 -0.333332 -0.666668
vn 0.803426 -0.532013 -0.267338
vn 0.802548 -0.263911 0.535040
vn -0.801003 -0.270607 -0.534010
vn 0.873989 -0.434052 -0.218500
vn 0.802548 -0.263911 0.535040
vn -0.871746 -0.438818 0.217939
vn -0.801003 -0.270607 -0.534010
vn 0.873989 -0.434052 -0.218500
vn 0.802548 -0.263911 0.535040
vn -0.871746 -0.438818 0.217939
vn -0.801003 -0.270607 -0.534010
vn 0.873989 -0.434052 -0.218500
vn 0.802548 -0.263911 0.535040
vn -0.871746 -0.438818 0.217939
vn -0.801003 -0.270607 -0.534010
vn 0.873989 -0.434052 -0.218500
vn 0.667424 -0.331465 0.666840
vn -0.871746 -0.438818 0.217939
vn -0.665899 -0.335199 -0.666498
vn -0.800132 -0.537028 0.267188
vt 0.995049 0.995049
vt 0.995049 0.995049
vt 0.004950 0.995049
vt 0.004950 0.995049
vt 0.995049 0.004950
vt 0.995049 0.004950
vt 0.004950 0.004950
vt 0.004950 0.004950
vt 0.004950 0.747525
vt 0.995049 0.008818
vt 0.995049 0.128713
vt 0.000000 0.000000
vt 0.000000 0.000000
vt 0.000000 0.000000
vt 0.000000 0.000000
vt 0.995049 0.035891
vt 0.995049 0.012686
vt 0.000000 0.000000
vt 0.000000 0.000000
vt 0.000000 0.000000
vt 0.000000 0.000000
vt 0.995049 0.006884
vt 0.000000 0.000000
vt 0.995049 0.005917
vt 0.000000 0.000000
vt 0.995049 0.500000
vt 0.004950 0.871287
vt 0.000000 0.000000
vt 0.000000 0.000000
vt 0.000000 0.000000
vt 0.000000 0.000000
vt 0.004950 0.964109
vt 0.004950 0.987314
vt 0.000000 0.000000
vt 0.000000 0.000000
vt 0.000000 0.000000
vt 0.000000 0.000000
vt 0.004950 0.993116
vt 0.000000 0.000000
vt 0.004950 0.994083
vt 0.000000 0.000000
vt 0.004950 0.500000
vt 0.004950 0.991182
vt 0.004950 0.979579
vt 0.004950 0.933168
vt 0.995049 0.020421
vt 0.995049 0.066832
vt 0.995049 0.252475
vt 0.000000 0.000000
vt 0.000000 0.000000
vt 0.747525 0.995049
vt 0.000000 0.000000
vt 0.000000 0.000000
vt 0.252475 0.004950
vt 0.500000 0.004950
vt 0.000000 0.000000
vt 0.000000 0.000000
vt 0.747525 0.995049
vt 0.000000 0.000000
vt 0.000000 0.000000
vt 0.252475 0.004950
vt 0.500000 0.004950
vt 0.000000 0.000000
vt 0.000000 0.000000
vt 0.747525 0.995049
vt 0.000000 0.000000
vt 0.000000 0.000000
vt 0.252475 0.004950
vt 0.500000 0.004950
vt 0.000000 0.000000
vt 0.000000 0.000000
vt 0.747525 0.995049
vt 0.000000 0.000000
vt 0.000000 0.000000
vt 0.252475 0.004950
vt 0.500000 0.004950
vt 0.000000 0.000000
vt 0.000000 0.000000
vt 0.747525 0.995049
vt 0.000000 0.000000
vt 0.000000 0.000000
vt 0.252475 0.004950
vt 0.500000 0.004950
vt 0.500000 0.995049
vt 0.500000 0.995049
vt 0.500000 0.995049
vt 0.500000 0.995049
vt 0.500000 0.995049
g Generic
usemtl Material2
f 15/12/15 13/13/13 12/14/12 
f 15/12/15 12/14/12 14/15/14 
f 17/16/17 19/17/19 18/18/18 
f 17/16/17 18/18/18 16/19/16 
f 18/18/18 19/17/19 15/12/15 
f 18/18/18 15/12/15 14/15/14 
f 17/16/17 16/19/16 20/53/20 
f 17/16/17 20/53/20 39/35/39 
f 21/20/21 22/38/22 37/21/37 
f 21/20/21 37/21/37 38/33/38 
f 32/22/32 55/23/55 52/24/52 
f 52/24/52 55/23/55 15/12/15 
f 52/24/52 15/12/15 51/25/51 
f 51/25/51 15/12/15 48/26/48 
f 51/25/51 48/26/48 34/27/34 
f 36/28/36 47/29/47 44/30/44 
f 44/30/44 47/29/47 15/12/15 
f 44/30/44 15/12/15 43/31/43 
f 43/31/43 15/12/15 41/32/41 
f 43/31/43 41/32/41 38/33/38 
f 41/32/41 15/12/15 40/34/40 
f 40/34/40 15/12/15 19/17/19 
f 40/34/40 19/17/19 39/35/39 
f 39/35/39 19/17/19 17/16/17 
f 15/12/15 55/23/55 56/36/56 
f 15/12/15 56/36/56 30/37/30 
f 15/12/15 30/37/30 13/13/13 
f 48/26/48 15/12/15 47/29/47 
f 43/31/43 38/33/38 37/21/37 
f 47/29/47 36/28/36 35/57/35 
f 51/25/51 34/27/34 33/58/33 
f 55/23/55 32/22/32 31/59/31 
f 22/38/22 57/39/57 54/40/54 
f 54/40/54 57/39/57 18/18/18 
f 54/40/54 18/18/18 53/41/53 
f 53/41/53 18/18/18 50/42/50 
f 53/41/53 50/42/50 24/43/24 
f 26/44/26 49/45/49 46/46/46 
f 46/46/46 49/45/49 18/18/18 
f 46/46/46 18/18/18 45/47/45 
f 45/47/45 18/18/18 42/48/42 
f 45/47/45 42/48/42 28/49/28 
f 42/48/42 18/18/18 59/50/59 
f 59/50/59 18/18/18 14/15/14 
f 59/50/59 14/15/14 29/51/29 
f 29/51/29 14/15/14 12/14/12 
f 18/18/18 57/39/57 58/52/58 
f 18/18/18 58/52/58 20/53/20 
f 18/18/18 20/53/20 16/19/16 
f 50/42/50 18/18/18 49/45/49 
f 45/47/45 28/49/28 27/54/27 
f 49/45/49 26/44/26 25/55/25 
f 53/41/53 24/43/24 23/56/23 
f 57/39/57 22/38/22 21/20/21 
f 23/56/23 24/43/24 35/57/35 
f 23/56/23 35/57/35 36/28/36 
f 25/55/25 26/44/26 33/58/33 
f 25/55/25 33/58/33 34/27/34 
f 27/54/27 28/49/28 31/59/31 
f 27/54/27 31/59/31 32/22/32 
f 29/51/29 12/14/12 13/13/13 
f 29/51/29 13/13/13 30/37/30 
f 29/60/29 30/61/30 56/62/56 
f 29/60/29 56/62/56 59/95/59 
f 31/63/31 28/64/28 42/65/42 
f 31/63/31 42/65/42 55/66/55 
f 27/67/27 32/68/32 52/69/52 
f 27/67/27 52/69/52 45/96/45 
f 33/70/33 26/71/26 46/72/46 
f 33/70/33 46/72/46 51/73/51 
f 25/74/25 34/75/34 48/76/48 
f 25/74/25 48/76/48 49/97/49 
f 35/77/35 24/78/24 50/79/50 
f 35/77/35 50/79/50 47/80/47 
f 23/81/23 36/82/36 44/83/44 
f 23/81/23 44/83/44 53/98/53 
f 37/84/37 22/85/22 54/86/54 
f 37/84/37 54/86/54 43/87/43 
f 21/88/21 38/89/38 41/90/41 
f 21/88/21 41/90/41 57/99/57 
f 39/91/39 20/92/20 58/93/58 
f 39/91/39 58/93/58 40/94/40 
f 55/66/55 42/65/42 59/95/59 
f 55/66/55 59/95/59 56/62/56 
f 51/73/51 46/72/46 45/96/45 
f 51/73/51 45/96/45 52/69/52 
f 47/80/47 50/79/50 49/97/49 
f 47/80/47 49/97/49 48/76/48 
f 43/87/43 54/86/54 53/98/53 
f 43/87/43 53/98/53 44/83/44 
f 40/94/40 58/93/58 57/99/57 
f 40/94/40 57/99/57 41/90/41 
